<svg width="40" height="40" viewBox="0 0 40 40" fill="none" xmlns="http://www.w3.org/2000/svg">
<path d="M39.4016 24.8381C36.7301 35.5525 25.877 42.0731 15.1601 39.4012C4.44772 36.7301 -2.07358 25.8775 0.599038 15.1639C3.26931 4.44838 14.1225 -2.07268 24.836 0.598468C35.5521 3.26961 42.073 14.1234 39.4013 24.8383L39.4015 24.8381H39.4016Z" fill="#F3BA2F"/>
<path fill-rule="evenodd" clip-rule="evenodd" d="M20.0024 12.6934L14.8229 17.8723L14.8231 17.8721L11.8095 14.8587L20.0024 6.66675L28.198 14.8612L25.1843 17.8745L20.0024 12.6934ZM9.68102 16.9864L6.66724 20.0003L9.6808 23.0131L12.6946 19.9996L9.68102 16.9864ZM14.8227 22.1282L20.0021 27.3067L25.1839 22.1257L28.1992 25.1375L28.1977 25.1391L20.0021 33.3334L11.8092 25.1414L11.8049 25.1371L14.8227 22.1282ZM30.3233 16.988L27.3095 20.0015L30.3232 23.0147L33.3368 20.0013L30.3233 16.988Z" fill="white"/>
<path d="M23.0588 19.9984H23.0601L20.0023 16.9407L17.7421 19.2L17.4824 19.4597L16.9469 19.9953L16.9426 19.9994L16.9469 20.0038L20.0023 23.0593L23.0603 20.0016L23.0618 19.9999L23.0591 19.9984" fill="white"/>
</svg>
