<svg width="40" height="40" viewBox="0 0 40 40" fill="none" xmlns="http://www.w3.org/2000/svg">
<circle cx="20" cy="20" r="20" fill="#00A6C4"/>
<path d="M28.6377 14.4612L27.8525 15.2451C28.5069 16.25 28.6522 17.5029 28.2451 18.6304C27.5214 20.6341 25.312 21.6772 23.3016 20.9645C23.0247 20.8664 22.761 20.7348 22.5163 20.5725L19.9999 23.0848L17.8048 20.8754C16.7568 21.5727 15.4415 21.7376 14.2533 21.3209C13.2625 20.9686 12.453 20.2367 12.0042 19.287C11.5554 18.3373 11.5042 17.2482 11.8619 16.2607C11.9708 15.9511 12.1208 15.6574 12.308 15.3877L11.3622 14.4434L11.1837 14.7463C9.23562 17.9276 9.15873 21.9109 10.9826 25.1649C12.8065 28.4188 16.2472 30.4369 19.9821 30.4434H19.9999C23.7313 30.4454 27.1737 28.4378 29.0046 25.1919C30.8355 21.9459 30.7703 17.9663 28.834 14.7819L28.6377 14.4612Z" fill="white"/>
<path d="M13.4632 16.7766C13.1625 17.141 13 17.5842 13 18.0398C13.0021 19.1823 14.0204 20.108 15.2772 20.1099C15.7819 20.1123 16.2722 19.9575 16.6667 19.6713L13.4632 16.7766Z" fill="white"/>
<path d="M24 19.4504C24.3166 19.6672 24.6924 19.7811 25.0761 19.7765C26.1379 19.7747 26.9982 18.9144 27 17.8527C27.0022 17.4693 26.8885 17.0943 26.6739 16.7766L24 19.4504Z" fill="white"/>
<path fill-rule="evenodd" clip-rule="evenodd" d="M11.4941 13.1475L19.9741 21.663L28.3477 13.3249L28.0283 12.9701C25.9443 10.659 22.9796 9.33777 19.8677 9.3333H19.8499C16.8129 9.32426 13.9086 10.5772 11.8312 12.7927L11.4941 13.1475ZM19.9742 20.2614L12.8779 13.1474C14.7469 11.3255 17.2577 10.3122 19.8677 10.3266H19.8854C22.5498 10.3358 25.1018 11.4012 26.9817 13.2893L19.9742 20.2614Z" fill="white"/>
</svg>
