<svg width="40" height="40" viewBox="0 0 40 40" fill="none" xmlns="http://www.w3.org/2000/svg">
<circle cx="20" cy="20" r="20" fill="#EDF0F4"/>
<path d="M26.0008 15.9833C25.5743 15.738 25.026 15.738 24.5386 15.9833L21.127 18.007L18.8119 19.2948L15.4612 21.3186C15.0347 21.5639 14.4864 21.5639 13.999 21.3186L11.3794 19.7241C10.9529 19.4788 10.6483 18.9882 10.6483 18.4363V15.37C10.6483 14.8794 10.892 14.3888 11.3794 14.0822L13.999 12.549C14.4255 12.3037 14.9738 12.3037 15.4612 12.549L18.0809 14.1435C18.5073 14.3888 18.8119 14.8794 18.8119 15.4313V17.4551L21.127 16.1059V14.0209C21.127 13.5302 20.8833 13.0396 20.3959 12.733L15.5221 9.85072C15.0957 9.60542 14.5474 9.60542 14.06 9.85072L9.06432 12.7943C8.57694 13.0396 8.33325 13.5302 8.33325 14.0209V19.7854C8.33325 20.276 8.57694 20.7667 9.06432 21.0733L13.999 23.9556C14.4255 24.2009 14.9738 24.2009 15.4612 23.9556L18.8119 21.9932L21.127 20.644L24.4777 18.6816C24.9042 18.4363 25.4525 18.4363 25.9399 18.6816L28.5595 20.2147C28.986 20.46 29.2906 20.9506 29.2906 21.5026V24.5688C29.2906 25.0594 29.0469 25.55 28.5595 25.8567L26.0008 27.3898C25.5743 27.6351 25.026 27.6351 24.5386 27.3898L21.919 25.8567C21.4925 25.6114 21.1879 25.1208 21.1879 24.5688V22.6064L18.8729 23.9556V25.9793C18.8729 26.4699 19.1165 26.9605 19.6039 27.2671L24.5386 30.1494C24.9651 30.3947 25.5134 30.3947 26.0008 30.1494L30.9355 27.2671C31.362 27.0218 31.6666 26.5312 31.6666 25.9793V20.1534C31.6666 19.6628 31.4229 19.1722 30.9355 18.8656L26.0008 15.9833Z" fill="#8247E5"/>
</svg>
