<svg width="40" height="40" viewBox="0 0 40 40" fill="none" xmlns="http://www.w3.org/2000/svg">
<path d="M20 40C31.0457 40 40 31.0457 40 20C40 8.9543 31.0457 0 20 0C8.9543 0 0 8.9543 0 20C0 31.0457 8.9543 40 20 40Z" fill="#FF0420"/>
<path fill-rule="evenodd" clip-rule="evenodd" d="M11.2384 24.4636C12.0971 25.0534 13.1236 25.3483 14.1642 25.3039C15.605 25.3039 16.7545 24.9688 17.6145 24.2987C18.4752 23.6185 19.0803 22.5932 19.43 21.2229C19.64 20.3827 19.8199 19.5175 19.9698 18.6272C20.0146 18.3644 20.0396 18.0986 20.0447 17.8321C20.0626 17.1918 19.8795 16.562 19.5202 16.0315C19.1642 15.5166 18.6628 15.1196 18.0801 14.8911C17.4237 14.6221 16.7193 14.4894 16.0097 14.501C13.1787 14.501 11.4234 15.8764 10.7433 18.6272C10.5032 19.6364 10.3181 20.5016 10.1881 21.2229C10.1427 21.4907 10.1177 21.7616 10.1132 22.0331C10.0895 22.4992 10.1792 22.964 10.3751 23.3875C10.5711 23.811 10.8676 24.1803 11.2384 24.4636ZM15.8003 22.6482C15.4014 22.9816 14.8942 23.1576 14.3742 23.1433C13.4143 23.1433 12.934 22.6832 12.934 21.7629C12.9334 21.6446 12.9398 21.5265 12.952 21.409C12.9616 21.3164 12.9757 21.2243 12.9936 21.1328C13.1735 20.1625 13.3535 19.3423 13.5341 18.6721C13.6474 18.0911 13.9413 17.5608 14.3742 17.1567C14.7796 16.8247 15.2906 16.6491 15.8144 16.6616C16.7647 16.6614 17.2399 17.1165 17.2399 18.0269C17.2399 18.2434 17.22 18.4594 17.1797 18.6721C17.0599 19.3727 16.8851 20.1929 16.6552 21.1328C16.5406 21.7168 16.2409 22.2484 15.8003 22.6482Z" fill="white"/>
<path fill-rule="evenodd" clip-rule="evenodd" d="M20.5967 25.1307C20.6409 25.1489 20.6883 25.1569 20.7363 25.1541L22.7772 25.1544C22.8271 25.1536 22.8764 25.1447 22.9225 25.1283C22.9731 25.1105 23.0205 25.084 23.0621 25.0495C23.1492 24.9835 23.2081 24.887 23.2261 24.7794L23.9164 21.4934H25.9419C27.2521 21.4934 28.2824 21.2184 29.0323 20.6682C29.8411 20.0394 30.3822 19.1283 30.548 18.1174C30.6063 17.8613 30.6364 17.5997 30.6383 17.337C30.6563 16.9444 30.5711 16.5539 30.3924 16.2039C30.2138 15.854 29.9467 15.5567 29.6176 15.3413C28.8178 14.8458 27.8867 14.6051 26.9466 14.6512H22.9558C22.879 14.6523 22.8047 14.6725 22.7387 14.7094C22.715 14.7228 22.692 14.7384 22.6702 14.7561C22.5838 14.822 22.5249 14.9186 22.5063 15.0262L20.436 24.779C20.4148 24.8715 20.4308 24.9685 20.4808 25.0492C20.5071 25.0782 20.5384 25.1021 20.573 25.1198L20.5967 25.1307ZM27.1432 19.0774C26.8256 19.3097 26.4407 19.431 26.0475 19.4223H24.3224L24.8923 16.7367H26.693C27.0023 16.7063 27.3129 16.7918 27.5633 16.9767C27.651 17.0613 27.7202 17.1644 27.7644 17.2785C27.8079 17.3926 27.8265 17.515 27.8181 17.6371C27.8162 17.7881 27.8009 17.9387 27.7733 18.0872C27.6939 18.4844 27.4691 18.8377 27.1432 19.0774Z" fill="white"/>
</svg>
