<svg width="40" height="40" viewBox="0 0 40 40" fill="none" xmlns="http://www.w3.org/2000/svg">
<path d="M39.4055 24.827C36.7367 35.5347 25.8916 42.0733 15.1642 39.4029C4.45639 36.7259 -2.07163 25.8808 0.597141 15.173C3.26591 4.46526 14.1045 -2.07327 24.8058 0.597122C35.5397 3.23479 42.0677 14.1127 39.4055 24.827Z" fill="#0088CC"/>
<path fill-rule="evenodd" clip-rule="evenodd" d="M12.219 10.051H28.2426C28.7786 10.051 29.3085 10.051 30.0231 10.4083C30.7376 10.7656 31.0889 11.3015 31.4462 11.6528C31.4462 11.6528 31.4462 11.6528 31.4462 11.8314C31.8035 12.3673 31.9821 12.8973 31.9821 13.6118C31.9821 14.1478 31.8035 14.8563 31.4462 15.3923L21.2996 32.6664C21.121 33.0237 20.5851 33.2023 20.2338 33.2023C19.8765 33.2023 19.3465 33.0237 19.1679 32.6664L9.19404 15.3923C9.0154 15.035 8.65813 14.505 8.47949 13.6118C8.47949 12.8973 8.65813 12.1887 8.83677 11.6528C9.19404 11.1169 9.72399 10.5869 10.2599 10.2297C11.1531 10.051 11.8617 10.051 12.219 10.051ZM18.9833 12.546H12.219C11.8617 12.546 11.683 12.546 11.5044 12.546C11.3258 12.546 11.1471 12.7246 11.1471 12.9033C10.9685 13.0819 10.9685 13.2605 10.9685 13.4392C10.9685 13.6178 10.9685 13.6178 11.3258 14.1537L18.9833 27.5098V12.546ZM21.4783 12.546V27.5038L29.3145 14.1478C29.3145 13.9691 29.4931 13.7905 29.4931 13.4332C29.4931 13.2546 29.4931 13.0759 29.3145 12.8973C29.1358 12.7187 29.1358 12.7187 29.1358 12.7187C29.1358 12.7187 29.1358 12.7187 28.9572 12.7187C28.7786 12.7187 28.5999 12.54 28.2426 12.54H21.4783V12.546Z" fill="white"/>
</svg>
