<svg width="40" height="40" viewBox="0 0 40 40" fill="none" xmlns="http://www.w3.org/2000/svg">
<path fill-rule="evenodd" clip-rule="evenodd" d="M20 40C9 40 0 31.0002 0 19.9004C0.1 8.90064 9 -0.0991726 20.1 0.00082534C31.1 0.100823 40 9.00064 40 20.2004C39.9 31.1002 31 40 20 40Z" fill="#FC070C"/>
<path fill-rule="evenodd" clip-rule="evenodd" d="M32.4119 14.01L32.4118 14.0099C31.4856 13.1106 30.5068 12.1603 29.6431 11.3936L29.5556 11.3324C29.41 11.2155 29.2458 11.1238 29.0699 11.0611L28.4033 10.9367C23.8033 10.0784 8.89296 7.29632 8.58625 7.33362C8.49553 7.34633 8.40882 7.37922 8.3325 7.42987L8.24937 7.4955C8.14702 7.59945 8.06928 7.72503 8.02187 7.863L8 7.91987V8.2305V8.27862C9.01229 11.0974 11.6419 17.3923 14.07 23.2047L14.07 23.2048C16.1227 28.1188 18.0314 32.6879 18.6968 34.5198L18.6971 34.5205C18.7846 34.792 18.9509 35.3073 19.2612 35.3335H19.3312C19.4975 35.3335 20.2062 34.3973 20.2062 34.3973C20.2062 34.3973 32.8762 19.0323 34.158 17.3961C34.324 17.1945 34.4705 16.9777 34.5955 16.7486C34.6605 16.3839 34.5293 16.0119 34.2499 15.7686C33.7041 15.2647 33.0713 14.6503 32.4119 14.01ZM23.4567 17.5579L28.8642 13.0736L32.0361 15.9961L23.4567 17.5579ZM12.0469 9.63477L21.3568 17.2647L27.11 12.4129L12.0469 9.63477ZM22.197 19.2641L31.7257 17.7285L20.832 30.8535L22.197 19.2641ZM20.5781 18.7086L10.7826 10.3962L19.1607 30.8623L20.5781 18.7086Z" fill="white"/>
</svg>
