<svg width="98" height="443" viewBox="0 0 98 443" fill="none" xmlns="http://www.w3.org/2000/svg">
<path d="M43 70.5C43 69.6716 43.6716 69 44.5 69C45.3284 69 46 69.6716 46 70.5V441.5C46 442.328 45.3284 443 44.5 443C43.6716 443 43 442.328 43 441.5V70.5Z" fill="url(#paint0_linear_2027_38)"/>
<g filter="url(#filter0_f_2027_38)">
<path d="M32.3281 30C32.3281 23.3726 37.7007 18 44.3281 18C50.9555 18 56.3281 23.3726 56.3281 30V34C56.3281 40.6274 50.9555 46 44.3281 46C37.7007 46 32.3281 40.6274 32.3281 34V30Z" fill="#3FB950"/>
</g>
<path d="M39.8281 19.75C39.8281 18.784 40.6121 18 41.5781 18H47.0781C48.0441 18 48.8281 18.784 48.8281 19.75V22H53.5781C54.5441 22 55.3281 22.784 55.3281 23.75V38.25C55.3281 38.7141 55.1437 39.1592 54.8156 39.4874C54.4874 39.8156 54.0423 40 53.5781 40H35.0781C34.614 40 34.1689 39.8156 33.8407 39.4874C33.5125 39.1592 33.3281 38.7141 33.3281 38.25V23.75C33.3281 22.784 34.1121 22 35.0781 22H39.8281V19.75ZM34.8281 29.99V38.25C34.8281 38.388 34.9401 38.5 35.0781 38.5H53.5781C53.6444 38.5 53.708 38.4737 53.7549 38.4268C53.8018 38.3799 53.8281 38.3163 53.8281 38.25V29.99C53.0608 30.6431 52.0858 31.0012 51.0781 31H37.5781C36.5705 31.0012 35.5954 30.6431 34.8281 29.99ZM53.8281 26.75V23.75C53.8281 23.6837 53.8018 23.6201 53.7549 23.5732C53.708 23.5263 53.6444 23.5 53.5781 23.5H35.0781C35.0118 23.5 34.9482 23.5263 34.9013 23.5732C34.8545 23.6201 34.8281 23.6837 34.8281 23.75V26.75C34.8281 27.4793 35.1179 28.1788 35.6336 28.6945C36.1493 29.2103 36.8488 29.5 37.5781 29.5H51.0781C51.8075 29.5 52.5069 29.2103 53.0227 28.6945C53.5384 28.1788 53.8281 27.4793 53.8281 26.75ZM47.3281 19.75C47.3281 19.6837 47.3018 19.6201 47.2549 19.5732C47.208 19.5263 47.1444 19.5 47.0781 19.5H41.5781C41.5118 19.5 41.4482 19.5263 41.4013 19.5732C41.3545 19.6201 41.3281 19.6837 41.3281 19.75V22H47.3281V19.75Z" fill="#E6EDF3"/>
<defs>
<filter id="filter0_f_2027_38" x="14.3281" y="0" width="60" height="64" filterUnits="userSpaceOnUse" color-interpolation-filters="sRGB">
<feFlood flood-opacity="0" result="BackgroundImageFix"/>
<feBlend mode="normal" in="SourceGraphic" in2="BackgroundImageFix" result="shape"/>
<feGaussianBlur stdDeviation="9" result="effect1_foregroundBlur_2027_38"/>
</filter>
<linearGradient id="paint0_linear_2027_38" x1="44.5" y1="69" x2="44.5" y2="443" gradientUnits="userSpaceOnUse">
<stop stop-color="#3FB950"/>
<stop offset="0.5" stop-color="#2EA043"/>
<stop offset="1" stop-opacity="0"/>
</linearGradient>
</defs>
</svg>
