<svg width="460" height="766" viewBox="0 0 460 766" fill="none" xmlns="http://www.w3.org/2000/svg">
<path d="M284.218 766L458.587 381" stroke="black" stroke-width="2"/>
<path d="M268.487 765.733L458.587 381" stroke="black" stroke-width="2"/>
<path d="M249.557 766L458.587 381" stroke="black" stroke-width="2"/>
<path d="M226.094 766L458.587 381" stroke="black" stroke-width="2"/>
<path d="M196.766 766L458.587 381" stroke="black" stroke-width="2"/>
<path d="M159.439 766L458.587 381" stroke="black" stroke-width="2"/>
<path d="M109.314 766L458.587 381" stroke="black" stroke-width="2"/>
<path d="M38.9265 766L458.587 381" stroke="black" stroke-width="2"/>
<path d="M0 716.942L458.587 381" stroke="black" stroke-width="2"/>
<path d="M0 631.623L458.587 381" stroke="black" stroke-width="2"/>
<path d="M0 546.838L458.587 381" stroke="black" stroke-width="2"/>
<path d="M0 462.052L458.587 381" stroke="black" stroke-width="2"/>
<path d="M-1.39852e-07 377.801L458.587 381" stroke="black" stroke-width="2"/>
<path d="M284.217 -4L458.587 381" stroke="black" stroke-width="2"/>
<path d="M268.487 -3.7334L458.587 381" stroke="black" stroke-width="2"/>
<path d="M249.557 -4L458.587 381" stroke="black" stroke-width="2"/>
<path d="M226.094 -4L458.587 381" stroke="black" stroke-width="2"/>
<path d="M196.766 -4L458.587 381" stroke="black" stroke-width="2"/>
<path d="M159.439 -4L458.587 381" stroke="black" stroke-width="2"/>
<path d="M109.314 -4L458.587 381" stroke="black" stroke-width="2"/>
<path d="M38.9265 -4L458.587 381" stroke="black" stroke-width="2"/>
<path d="M0 45.0581L458.587 381" stroke="black" stroke-width="2"/>
<path d="M0 130.377L458.587 381" stroke="black" stroke-width="2"/>
<path d="M0 215.162L458.587 381" stroke="black" stroke-width="2"/>
<path d="M0 299.947L458.587 381" stroke="black" stroke-width="2"/>
<path d="M55.9902 766L55.9902 -1.86709" stroke="black" stroke-width="2"/>
<path d="M100.249 766L100.249 -1.86709" stroke="black" stroke-width="2"/>
<path d="M136.51 766L136.51 -1.86709" stroke="black" stroke-width="2"/>
<path d="M165.305 766L165.305 -1.86709" stroke="black" stroke-width="2"/>
<path d="M189.834 766L189.834 -1.86709" stroke="black" stroke-width="2"/>
<path d="M210.097 766L210.097 -1.86709" stroke="black" stroke-width="2"/>
<path d="M227.694 766L227.694 -1.86709" stroke="black" stroke-width="2"/>
<path d="M243.158 766L243.158 -1.86709" stroke="black" stroke-width="2"/>
<path d="M257.022 766L257.022 -1.86709" stroke="black" stroke-width="2"/>
<path d="M268.753 766L268.753 -1.86709" stroke="black" stroke-width="2"/>
<path d="M278.885 766L278.885 -1.86709" stroke="black" stroke-width="2"/>
<path d="M288.483 766L288.483 -1.86709" stroke="black" stroke-width="2"/>
</svg>
