<svg width="23" height="555" viewBox="0 0 23 555" fill="none" xmlns="http://www.w3.org/2000/svg">
<g opacity="0.9">
<rect x="1.68195" y="1.32343" width="20.5827" height="552.941" stroke="#5C5C5C" stroke-width="1.47059"/>
<rect x="1.68195" y="507.206" width="20.5827" height="23.5294" fill="#4E4E4E" stroke="#5C5C5C" stroke-width="1.47059"/>
<path d="M13.9191 513.823H10.0274V518.235H7.43286L11.9733 524.118L16.5136 518.235H13.9191V513.823Z" fill="black"/>
<path d="M20.4055 507.941V528.529H2.2439" stroke="#111111" stroke-width="2.94118"/>
<path d="M2.89258 528.529V508.676H20.4055" stroke="white" stroke-width="1.47059"/>
<rect x="1.68195" y="1.32343" width="20.5827" height="23.5294" fill="#606060" stroke="#5C5C5C" stroke-width="1.47059"/>
<path d="M13.9191 18.2351H10.0274V13.8233H7.43286L11.9733 7.94099L16.5136 13.8233H13.9191V18.2351Z" fill="#1A1A1A"/>
<path d="M20.4055 2.05884V22.6471H2.2439" stroke="#111111" stroke-width="2.94118"/>
<path d="M2.89258 22.6469V2.79395H20.4055" stroke="white" stroke-width="1.47059"/>
<rect x="1.68195" y="25.3234" width="20.5827" height="481.529" fill="#6C6C6C" stroke="#5C5C5C" stroke-width="1.47059"/>
<path d="M20.4055 25.5881V504.588H2.2439" stroke="#111111" stroke-width="2.94118"/>
<path d="M2.89258 504.588V26.3235H20.4055" stroke="#FFEFFD" stroke-width="1.47059"/>
<rect x="2.2439" y="532.941" width="1.29725" height="1.47059" fill="#BDBDBD"/>
<rect x="2.2439" y="535.882" width="1.29725" height="1.47059" fill="#BDBDBD"/>
<rect x="2.2439" y="538.823" width="1.29725" height="1.47059" fill="#BDBDBD"/>
<rect x="2.2439" y="541.765" width="1.29725" height="1.47059" fill="#BDBDBD"/>
<rect x="2.2439" y="544.706" width="1.29725" height="1.47059" fill="#BDBDBD"/>
<rect x="2.2439" y="547.647" width="1.29725" height="1.47059" fill="#BDBDBD"/>
<rect x="2.2439" y="550.588" width="1.29725" height="1.47059" fill="#BDBDBD"/>
<rect x="3.54114" y="534.412" width="1.29725" height="1.47059" fill="#BDBDBD"/>
<rect x="3.54114" y="537.353" width="1.29725" height="1.47059" fill="#BDBDBD"/>
<rect x="3.54114" y="540.294" width="1.29725" height="1.47059" fill="#BDBDBD"/>
<rect x="3.54114" y="543.235" width="1.29725" height="1.47059" fill="#BDBDBD"/>
<rect x="3.54114" y="546.176" width="1.29725" height="1.47059" fill="#BDBDBD"/>
<rect x="3.54114" y="549.117" width="1.29725" height="1.47059" fill="#BDBDBD"/>
<rect x="3.54114" y="552.059" width="1.29725" height="1.47059" fill="#BDBDBD"/>
<rect x="3.54114" y="531.47" width="1.29725" height="1.47059" fill="#BDBDBD"/>
<rect x="4.83838" y="532.941" width="1.29725" height="1.47059" fill="#BDBDBD"/>
<rect x="4.83838" y="535.882" width="1.29725" height="1.47059" fill="#BDBDBD"/>
<rect x="4.83838" y="538.823" width="1.29725" height="1.47059" fill="#BDBDBD"/>
<rect x="4.83838" y="541.765" width="1.29725" height="1.47059" fill="#BDBDBD"/>
<rect x="4.83838" y="544.706" width="1.29725" height="1.47059" fill="#BDBDBD"/>
<rect x="4.83838" y="547.647" width="1.29725" height="1.47059" fill="#BDBDBD"/>
<rect x="4.83838" y="550.588" width="1.29725" height="1.47059" fill="#BDBDBD"/>
<rect x="6.13562" y="534.412" width="1.29725" height="1.47059" fill="#BDBDBD"/>
<rect x="6.13562" y="537.353" width="1.29725" height="1.47059" fill="#BDBDBD"/>
<rect x="6.13562" y="540.294" width="1.29725" height="1.47059" fill="#BDBDBD"/>
<rect x="6.13562" y="543.235" width="1.29725" height="1.47059" fill="#BDBDBD"/>
<rect x="6.13562" y="546.176" width="1.29725" height="1.47059" fill="#BDBDBD"/>
<rect x="6.13562" y="549.117" width="1.29725" height="1.47059" fill="#BDBDBD"/>
<rect x="6.13562" y="552.059" width="1.29725" height="1.47059" fill="#BDBDBD"/>
<rect x="6.13562" y="531.47" width="1.29725" height="1.47059" fill="#BDBDBD"/>
<rect x="7.43286" y="532.941" width="1.29725" height="1.47059" fill="#BDBDBD"/>
<rect x="7.43286" y="535.882" width="1.29725" height="1.47059" fill="#BDBDBD"/>
<rect x="7.43286" y="538.823" width="1.29725" height="1.47059" fill="#BDBDBD"/>
<rect x="7.43286" y="541.765" width="1.29725" height="1.47059" fill="#BDBDBD"/>
<rect x="7.43286" y="544.706" width="1.29725" height="1.47059" fill="#BDBDBD"/>
<rect x="7.43286" y="547.647" width="1.29725" height="1.47059" fill="#BDBDBD"/>
<rect x="7.43286" y="550.588" width="1.29725" height="1.47059" fill="#BDBDBD"/>
<rect x="8.73022" y="534.412" width="1.29725" height="1.47059" fill="#BDBDBD"/>
<rect x="8.73022" y="537.353" width="1.29725" height="1.47059" fill="#BDBDBD"/>
<rect x="8.73022" y="540.294" width="1.29725" height="1.47059" fill="#BDBDBD"/>
<rect x="8.73022" y="543.235" width="1.29725" height="1.47059" fill="#BDBDBD"/>
<rect x="8.73022" y="546.176" width="1.29725" height="1.47059" fill="#BDBDBD"/>
<rect x="8.73022" y="549.117" width="1.29725" height="1.47059" fill="#BDBDBD"/>
<rect x="8.73022" y="552.059" width="1.29725" height="1.47059" fill="#BDBDBD"/>
<rect x="8.73022" y="531.47" width="1.29725" height="1.47059" fill="#BDBDBD"/>
<rect x="10.0275" y="532.941" width="1.29725" height="1.47059" fill="#BDBDBD"/>
<rect x="10.0275" y="535.882" width="1.29725" height="1.47059" fill="#BDBDBD"/>
<rect x="10.0275" y="538.823" width="1.29725" height="1.47059" fill="#BDBDBD"/>
<rect x="10.0275" y="541.765" width="1.29725" height="1.47059" fill="#BDBDBD"/>
<rect x="10.0275" y="544.706" width="1.29725" height="1.47059" fill="#BDBDBD"/>
<rect x="10.0275" y="547.647" width="1.29725" height="1.47059" fill="#BDBDBD"/>
<rect x="10.0275" y="550.588" width="1.29725" height="1.47059" fill="#BDBDBD"/>
<rect x="11.3247" y="534.412" width="1.29725" height="1.47059" fill="#BDBDBD"/>
<rect x="11.3247" y="537.353" width="1.29725" height="1.47059" fill="#BDBDBD"/>
<rect x="11.3247" y="540.294" width="1.29725" height="1.47059" fill="#BDBDBD"/>
<rect x="11.3247" y="543.235" width="1.29725" height="1.47059" fill="#BDBDBD"/>
<rect x="11.3247" y="546.176" width="1.29725" height="1.47059" fill="#BDBDBD"/>
<rect x="11.3247" y="549.117" width="1.29725" height="1.47059" fill="#BDBDBD"/>
<rect x="11.3247" y="552.059" width="1.29725" height="1.47059" fill="#BDBDBD"/>
<rect x="11.3247" y="531.47" width="1.29725" height="1.47059" fill="#BDBDBD"/>
<rect x="12.6221" y="532.941" width="1.29725" height="1.47059" fill="#BDBDBD"/>
<rect x="12.6221" y="535.882" width="1.29725" height="1.47059" fill="#BDBDBD"/>
<rect x="12.6221" y="538.823" width="1.29725" height="1.47059" fill="#BDBDBD"/>
<rect x="12.6221" y="541.765" width="1.29725" height="1.47059" fill="#BDBDBD"/>
<rect x="12.6221" y="544.706" width="1.29725" height="1.47059" fill="#BDBDBD"/>
<rect x="12.6221" y="547.647" width="1.29725" height="1.47059" fill="#BDBDBD"/>
<rect x="12.6221" y="550.588" width="1.29725" height="1.47059" fill="#BDBDBD"/>
<rect x="13.9193" y="534.412" width="1.29725" height="1.47059" fill="#BDBDBD"/>
<rect x="13.9193" y="537.353" width="1.29725" height="1.47059" fill="#BDBDBD"/>
<rect x="13.9193" y="540.294" width="1.29725" height="1.47059" fill="#BDBDBD"/>
<rect x="13.9193" y="543.235" width="1.29725" height="1.47059" fill="#BDBDBD"/>
<rect x="13.9193" y="546.176" width="1.29725" height="1.47059" fill="#BDBDBD"/>
<rect x="13.9193" y="549.117" width="1.29725" height="1.47059" fill="#BDBDBD"/>
<rect x="13.9193" y="552.059" width="1.29725" height="1.47059" fill="#BDBDBD"/>
<rect x="13.9193" y="531.47" width="1.29725" height="1.47059" fill="#BDBDBD"/>
<rect x="15.2166" y="532.941" width="1.29725" height="1.47059" fill="#BDBDBD"/>
<rect x="15.2166" y="535.882" width="1.29725" height="1.47059" fill="#BDBDBD"/>
<rect x="15.2166" y="538.823" width="1.29725" height="1.47059" fill="#BDBDBD"/>
<rect x="15.2166" y="541.765" width="1.29725" height="1.47059" fill="#BDBDBD"/>
<rect x="15.2166" y="544.706" width="1.29725" height="1.47059" fill="#BDBDBD"/>
<rect x="15.2166" y="547.647" width="1.29725" height="1.47059" fill="#BDBDBD"/>
<rect x="15.2166" y="550.588" width="1.29725" height="1.47059" fill="#BDBDBD"/>
<rect x="16.5138" y="534.412" width="1.29725" height="1.47059" fill="#BDBDBD"/>
<rect x="16.5138" y="537.353" width="1.29725" height="1.47059" fill="#BDBDBD"/>
<rect x="16.5138" y="540.294" width="1.29725" height="1.47059" fill="#BDBDBD"/>
<rect x="16.5138" y="543.235" width="1.29725" height="1.47059" fill="#BDBDBD"/>
<rect x="16.5138" y="546.176" width="1.29725" height="1.47059" fill="#BDBDBD"/>
<rect x="16.5138" y="549.117" width="1.29725" height="1.47059" fill="#BDBDBD"/>
<rect x="16.5138" y="552.059" width="1.29725" height="1.47059" fill="#BDBDBD"/>
<rect x="16.5138" y="531.47" width="1.29725" height="1.47059" fill="#BDBDBD"/>
<rect x="17.811" y="532.941" width="1.29725" height="1.47059" fill="#BDBDBD"/>
<rect x="17.811" y="535.882" width="1.29725" height="1.47059" fill="#BDBDBD"/>
<rect x="17.811" y="538.823" width="1.29725" height="1.47059" fill="#BDBDBD"/>
<rect x="17.811" y="541.765" width="1.29725" height="1.47059" fill="#BDBDBD"/>
<rect x="17.811" y="544.706" width="1.29725" height="1.47059" fill="#BDBDBD"/>
<rect x="17.811" y="547.647" width="1.29725" height="1.47059" fill="#BDBDBD"/>
<rect x="17.811" y="550.588" width="1.29725" height="1.47059" fill="#BDBDBD"/>
<rect x="19.1083" y="534.412" width="1.29725" height="1.47059" fill="#BDBDBD"/>
<rect x="19.1083" y="537.353" width="1.29725" height="1.47059" fill="#BDBDBD"/>
<rect x="19.1083" y="540.294" width="1.29725" height="1.47059" fill="#BDBDBD"/>
<rect x="19.1083" y="543.235" width="1.29725" height="1.47059" fill="#BDBDBD"/>
<rect x="19.1083" y="546.176" width="1.29725" height="1.47059" fill="#BDBDBD"/>
<rect x="19.1083" y="549.117" width="1.29725" height="1.47059" fill="#BDBDBD"/>
<rect x="19.1083" y="552.059" width="1.29725" height="1.47059" fill="#BDBDBD"/>
<rect x="19.1083" y="531.47" width="1.29725" height="1.47059" fill="#BDBDBD"/>
<rect x="20.4055" y="532.941" width="1.29725" height="1.47059" fill="#BDBDBD"/>
<rect x="20.4055" y="535.882" width="1.29725" height="1.47059" fill="#BDBDBD"/>
<rect x="20.4055" y="538.823" width="1.29725" height="1.47059" fill="#BDBDBD"/>
<rect x="20.4055" y="541.765" width="1.29725" height="1.47059" fill="#BDBDBD"/>
<rect x="20.4055" y="544.706" width="1.29725" height="1.47059" fill="#BDBDBD"/>
<rect x="20.4055" y="547.647" width="1.29725" height="1.47059" fill="#BDBDBD"/>
<rect x="20.4055" y="550.588" width="1.29725" height="1.47059" fill="#BDBDBD"/>
<rect x="3.54114" y="532.941" width="1.29725" height="1.47059" fill="#111111"/>
<rect x="3.54114" y="535.882" width="1.29725" height="1.47059" fill="#111111"/>
<rect x="3.54114" y="538.823" width="1.29725" height="1.47059" fill="#111111"/>
<rect x="3.54114" y="541.765" width="1.29725" height="1.47059" fill="#111111"/>
<rect x="3.54114" y="544.706" width="1.29725" height="1.47059" fill="#111111"/>
<rect x="3.54114" y="547.647" width="1.29725" height="1.47059" fill="#111111"/>
<rect x="3.54114" y="550.588" width="1.29725" height="1.47059" fill="#111111"/>
<rect x="4.83838" y="534.412" width="1.29725" height="1.47059" fill="#111111"/>
<rect x="4.83838" y="537.353" width="1.29725" height="1.47059" fill="#111111"/>
<rect x="4.83838" y="540.294" width="1.29725" height="1.47059" fill="#111111"/>
<rect x="4.83838" y="543.235" width="1.29725" height="1.47059" fill="#111111"/>
<rect x="4.83838" y="546.176" width="1.29725" height="1.47059" fill="#111111"/>
<rect x="4.83838" y="549.117" width="1.29725" height="1.47059" fill="#111111"/>
<rect x="4.83838" y="552.059" width="1.29725" height="1.47059" fill="#111111"/>
<rect x="4.83838" y="531.47" width="1.29725" height="1.47059" fill="#111111"/>
<rect x="2.2439" y="534.412" width="1.29725" height="1.47059" fill="#111111"/>
<rect x="2.2439" y="537.353" width="1.29725" height="1.47059" fill="#111111"/>
<rect x="2.2439" y="540.294" width="1.29725" height="1.47059" fill="#111111"/>
<rect x="2.2439" y="543.235" width="1.29725" height="1.47059" fill="#111111"/>
<rect x="2.2439" y="546.176" width="1.29725" height="1.47059" fill="#111111"/>
<rect x="2.2439" y="549.117" width="1.29725" height="1.47059" fill="#111111"/>
<rect x="2.2439" y="552.059" width="1.29725" height="1.47059" fill="#111111"/>
<rect x="2.2439" y="531.47" width="1.29725" height="1.47059" fill="#111111"/>
<rect x="6.13562" y="532.941" width="1.29725" height="1.47059" fill="#111111"/>
<rect x="6.13562" y="535.882" width="1.29725" height="1.47059" fill="#111111"/>
<rect x="6.13562" y="538.823" width="1.29725" height="1.47059" fill="#111111"/>
<rect x="6.13562" y="541.765" width="1.29725" height="1.47059" fill="#111111"/>
<rect x="6.13562" y="544.706" width="1.29725" height="1.47059" fill="#111111"/>
<rect x="6.13562" y="547.647" width="1.29725" height="1.47059" fill="#111111"/>
<rect x="6.13562" y="550.588" width="1.29725" height="1.47059" fill="#111111"/>
<rect x="7.43286" y="534.412" width="1.29725" height="1.47059" fill="#111111"/>
<rect x="7.43286" y="537.353" width="1.29725" height="1.47059" fill="#111111"/>
<rect x="7.43286" y="540.294" width="1.29725" height="1.47059" fill="#111111"/>
<rect x="7.43286" y="543.235" width="1.29725" height="1.47059" fill="#111111"/>
<rect x="7.43286" y="546.176" width="1.29725" height="1.47059" fill="#111111"/>
<rect x="7.43286" y="549.117" width="1.29725" height="1.47059" fill="#111111"/>
<rect x="7.43286" y="552.059" width="1.29725" height="1.47059" fill="#111111"/>
<rect x="7.43286" y="531.47" width="1.29725" height="1.47059" fill="#111111"/>
<rect x="8.73022" y="532.941" width="1.29725" height="1.47059" fill="#111111"/>
<rect x="8.73022" y="535.882" width="1.29725" height="1.47059" fill="#111111"/>
<rect x="8.73022" y="538.823" width="1.29725" height="1.47059" fill="#111111"/>
<rect x="8.73022" y="541.765" width="1.29725" height="1.47059" fill="#111111"/>
<rect x="8.73022" y="544.706" width="1.29725" height="1.47059" fill="#111111"/>
<rect x="8.73022" y="547.647" width="1.29725" height="1.47059" fill="#111111"/>
<rect x="8.73022" y="550.588" width="1.29725" height="1.47059" fill="#111111"/>
<rect x="10.0275" y="534.412" width="1.29725" height="1.47059" fill="#111111"/>
<rect x="10.0275" y="537.353" width="1.29725" height="1.47059" fill="#111111"/>
<rect x="10.0275" y="540.294" width="1.29725" height="1.47059" fill="#111111"/>
<rect x="10.0275" y="543.235" width="1.29725" height="1.47059" fill="#111111"/>
<rect x="10.0275" y="546.176" width="1.29725" height="1.47059" fill="#111111"/>
<rect x="10.0275" y="549.117" width="1.29725" height="1.47059" fill="#111111"/>
<rect x="10.0275" y="552.059" width="1.29725" height="1.47059" fill="#111111"/>
<rect x="10.0275" y="531.47" width="1.29725" height="1.47059" fill="#111111"/>
<rect x="11.3247" y="532.941" width="1.29725" height="1.47059" fill="#111111"/>
<rect x="11.3247" y="535.882" width="1.29725" height="1.47059" fill="#111111"/>
<rect x="11.3247" y="538.823" width="1.29725" height="1.47059" fill="#111111"/>
<rect x="11.3247" y="541.765" width="1.29725" height="1.47059" fill="#111111"/>
<rect x="11.3247" y="544.706" width="1.29725" height="1.47059" fill="#111111"/>
<rect x="11.3247" y="547.647" width="1.29725" height="1.47059" fill="#111111"/>
<rect x="11.3247" y="550.588" width="1.29725" height="1.47059" fill="#111111"/>
<rect x="12.6221" y="534.412" width="1.29725" height="1.47059" fill="#111111"/>
<rect x="12.6221" y="537.353" width="1.29725" height="1.47059" fill="#111111"/>
<rect x="12.6221" y="540.294" width="1.29725" height="1.47059" fill="#111111"/>
<rect x="12.6221" y="543.235" width="1.29725" height="1.47059" fill="#111111"/>
<rect x="12.6221" y="546.176" width="1.29725" height="1.47059" fill="#111111"/>
<rect x="12.6221" y="549.117" width="1.29725" height="1.47059" fill="#111111"/>
<rect x="12.6221" y="552.059" width="1.29725" height="1.47059" fill="#111111"/>
<rect x="12.6221" y="531.47" width="1.29725" height="1.47059" fill="#111111"/>
<rect x="13.9193" y="532.941" width="1.29725" height="1.47059" fill="#111111"/>
<rect x="13.9193" y="535.882" width="1.29725" height="1.47059" fill="#111111"/>
<rect x="13.9193" y="538.823" width="1.29725" height="1.47059" fill="#111111"/>
<rect x="13.9193" y="541.765" width="1.29725" height="1.47059" fill="#111111"/>
<rect x="13.9193" y="544.706" width="1.29725" height="1.47059" fill="#111111"/>
<rect x="13.9193" y="547.647" width="1.29725" height="1.47059" fill="#111111"/>
<rect x="13.9193" y="550.588" width="1.29725" height="1.47059" fill="#111111"/>
<rect x="15.2166" y="534.412" width="1.29725" height="1.47059" fill="#111111"/>
<rect x="15.2166" y="537.353" width="1.29725" height="1.47059" fill="#111111"/>
<rect x="15.2166" y="540.294" width="1.29725" height="1.47059" fill="#111111"/>
<rect x="15.2166" y="543.235" width="1.29725" height="1.47059" fill="#111111"/>
<rect x="15.2166" y="546.176" width="1.29725" height="1.47059" fill="#111111"/>
<rect x="15.2166" y="549.117" width="1.29725" height="1.47059" fill="#111111"/>
<rect x="15.2166" y="552.059" width="1.29725" height="1.47059" fill="#111111"/>
<rect x="15.2166" y="531.47" width="1.29725" height="1.47059" fill="#111111"/>
<rect x="16.5138" y="532.941" width="1.29725" height="1.47059" fill="#111111"/>
<rect x="16.5138" y="535.882" width="1.29725" height="1.47059" fill="#111111"/>
<rect x="16.5138" y="538.823" width="1.29725" height="1.47059" fill="#111111"/>
<rect x="16.5138" y="541.765" width="1.29725" height="1.47059" fill="#111111"/>
<rect x="16.5138" y="544.706" width="1.29725" height="1.47059" fill="#111111"/>
<rect x="16.5138" y="547.647" width="1.29725" height="1.47059" fill="#111111"/>
<rect x="16.5138" y="550.588" width="1.29725" height="1.47059" fill="#111111"/>
<rect x="17.811" y="534.412" width="1.29725" height="1.47059" fill="#111111"/>
<rect x="17.811" y="537.353" width="1.29725" height="1.47059" fill="#111111"/>
<rect x="17.811" y="540.294" width="1.29725" height="1.47059" fill="#111111"/>
<rect x="17.811" y="543.235" width="1.29725" height="1.47059" fill="#111111"/>
<rect x="17.811" y="546.176" width="1.29725" height="1.47059" fill="#111111"/>
<rect x="17.811" y="549.117" width="1.29725" height="1.47059" fill="#111111"/>
<rect x="17.811" y="552.059" width="1.29725" height="1.47059" fill="#111111"/>
<rect x="17.811" y="531.47" width="1.29725" height="1.47059" fill="#111111"/>
<rect x="19.1083" y="532.941" width="1.29725" height="1.47059" fill="#111111"/>
<rect x="19.1083" y="535.882" width="1.29725" height="1.47059" fill="#111111"/>
<rect x="19.1083" y="538.823" width="1.29725" height="1.47059" fill="#111111"/>
<rect x="19.1083" y="541.765" width="1.29725" height="1.47059" fill="#111111"/>
<rect x="19.1083" y="544.706" width="1.29725" height="1.47059" fill="#111111"/>
<rect x="19.1083" y="547.647" width="1.29725" height="1.47059" fill="#111111"/>
<rect x="19.1083" y="550.588" width="1.29725" height="1.47059" fill="#111111"/>
<rect x="20.4055" y="534.412" width="1.29725" height="1.47059" fill="#111111"/>
<rect x="20.4055" y="537.353" width="1.29725" height="1.47059" fill="#111111"/>
<rect x="20.4055" y="540.294" width="1.29725" height="1.47059" fill="#111111"/>
<rect x="20.4055" y="543.235" width="1.29725" height="1.47059" fill="#111111"/>
<rect x="20.4055" y="546.176" width="1.29725" height="1.47059" fill="#111111"/>
<rect x="20.4055" y="549.117" width="1.29725" height="1.47059" fill="#111111"/>
<rect x="20.4055" y="552.059" width="1.29725" height="1.47059" fill="#111111"/>
<rect x="20.4055" y="531.47" width="1.29725" height="1.47059" fill="#111111"/>
</g>
</svg>
