<svg width="220" height="40" viewBox="0 0 220 40" fill="none" xmlns="http://www.w3.org/2000/svg">
<circle cx="20" cy="20" r="20" fill="#EDF0F4"/>
<path d="M19.9452 8L19.7861 8.54043V24.221L19.9452 24.3797L27.2238 20.0773L19.9452 8Z" fill="#343434"/>
<path d="M19.9455 8L12.6667 20.0773L19.9455 24.3797V16.7688V8Z" fill="#8C8C8C"/>
<path d="M19.9454 25.758L19.8557 25.8673V31.453L19.9454 31.7147L27.2284 21.4578L19.9454 25.758Z" fill="#3C3C3B"/>
<path d="M19.9455 31.7147V25.758L12.6667 21.4578L19.9455 31.7147Z" fill="#8C8C8C"/>
<path d="M19.9453 24.3797L27.2239 20.0773L19.9453 16.7688V24.3797Z" fill="#141414"/>
<path d="M12.6667 20.0773L19.9455 24.3797V16.7688L12.6667 20.0773Z" fill="#393939"/>
<path fill-rule="evenodd" clip-rule="evenodd" d="M50 40C39 40 30 31.0002 30 19.9004C30.1 8.90064 39 -0.0991726 50.1 0.00082534C61.1 0.100823 70 9.00064 70 20.2004C69.9 31.1002 61 40 50 40Z" fill="#FC070C"/>
<path fill-rule="evenodd" clip-rule="evenodd" d="M62.4119 14.01L62.4118 14.0099C61.4856 13.1106 60.5068 12.1603 59.6431 11.3936L59.5556 11.3324C59.41 11.2155 59.2458 11.1238 59.0699 11.0611L58.4033 10.9367C53.8033 10.0784 38.893 7.29632 38.5862 7.33362C38.4955 7.34633 38.4088 7.37922 38.3325 7.42987L38.2494 7.4955C38.147 7.59945 38.0693 7.72503 38.0219 7.863L38 7.91987V8.2305V8.27862C39.0123 11.0974 41.6419 17.3923 44.07 23.2047L44.07 23.2048C46.1227 28.1188 48.0314 32.6879 48.6968 34.5198L48.6971 34.5205C48.7846 34.792 48.9509 35.3073 49.2612 35.3335H49.3312C49.4975 35.3335 50.2062 34.3973 50.2062 34.3973C50.2062 34.3973 62.8762 19.0323 64.158 17.3961C64.324 17.1945 64.4705 16.9777 64.5955 16.7486C64.6605 16.3839 64.5293 16.0119 64.2499 15.7686C63.7041 15.2647 63.0713 14.6503 62.4119 14.01ZM53.4567 17.5579L58.8642 13.0736L62.0361 15.9961L53.4567 17.5579ZM42.0469 9.63477L51.3568 17.2647L57.11 12.4129L42.0469 9.63477ZM52.197 19.2641L61.7257 17.7285L50.832 30.8535L52.197 19.2641ZM50.5781 18.7086L40.7826 10.3962L49.1607 30.8623L50.5781 18.7086Z" fill="white"/>
<path d="M99.4016 24.8381C96.7301 35.5525 85.877 42.0731 75.1601 39.4012C64.4477 36.7301 57.9264 25.8775 60.599 15.1639C63.2693 4.44838 74.1225 -2.07268 84.836 0.598468C95.5521 3.26961 102.073 14.1234 99.4013 24.8383L99.4015 24.8381H99.4016Z" fill="#F3BA2F"/>
<path fill-rule="evenodd" clip-rule="evenodd" d="M80.0024 12.6934L74.8229 17.8723L74.8231 17.8721L71.8095 14.8587L80.0024 6.66675L88.198 14.8612L85.1843 17.8745L80.0024 12.6934ZM69.681 16.9864L66.6672 20.0003L69.6808 23.0131L72.6946 19.9996L69.681 16.9864ZM74.8227 22.1282L80.0021 27.3067L85.1839 22.1257L88.1992 25.1375L88.1977 25.1391L80.0021 33.3334L71.8092 25.1414L71.8049 25.1371L74.8227 22.1282ZM90.3233 16.988L87.3095 20.0015L90.3232 23.0147L93.3368 20.0013L90.3233 16.988Z" fill="white"/>
<path d="M83.0588 19.9984H83.0601L80.0023 16.9407L77.7421 19.2L77.4824 19.4597L76.9469 19.9953L76.9426 19.9994L76.9469 20.0038L80.0023 23.0593L83.0603 20.0016L83.0618 19.9999L83.0591 19.9984" fill="white"/>
<circle cx="110" cy="20" r="20" fill="#00A6C4"/>
<path d="M118.638 14.4612L117.852 15.2451C118.507 16.25 118.652 17.5029 118.245 18.6304C117.521 20.6341 115.312 21.6772 113.302 20.9645C113.025 20.8664 112.761 20.7348 112.516 20.5725L110 23.0848L107.805 20.8754C106.757 21.5727 105.442 21.7376 104.253 21.3209C103.262 20.9686 102.453 20.2367 102.004 19.287C101.555 18.3373 101.504 17.2482 101.862 16.2607C101.971 15.9511 102.121 15.6574 102.308 15.3877L101.362 14.4434L101.184 14.7463C99.2356 17.9276 99.1587 21.9109 100.983 25.1649C102.806 28.4188 106.247 30.4369 109.982 30.4434H110C113.731 30.4454 117.174 28.4378 119.005 25.1919C120.836 21.9459 120.77 17.9663 118.834 14.7819L118.638 14.4612Z" fill="white"/>
<path d="M103.463 16.7766C103.163 17.141 103 17.5842 103 18.0398C103.002 19.1823 104.02 20.108 105.277 20.1099C105.782 20.1123 106.272 19.9575 106.667 19.6713L103.463 16.7766Z" fill="white"/>
<path d="M114 19.4504C114.317 19.6672 114.692 19.7811 115.076 19.7765C116.138 19.7747 116.998 18.9144 117 17.8527C117.002 17.4693 116.889 17.0943 116.674 16.7766L114 19.4504Z" fill="white"/>
<path fill-rule="evenodd" clip-rule="evenodd" d="M101.494 13.1475L109.974 21.663L118.348 13.3249L118.028 12.9701C115.944 10.659 112.98 9.33777 109.868 9.3333H109.85C106.813 9.32426 103.909 10.5772 101.831 12.7927L101.494 13.1475ZM109.974 20.2614L102.878 13.1474C104.747 11.3255 107.258 10.3122 109.868 10.3266H109.885C112.55 10.3358 115.102 11.4012 116.982 13.2893L109.974 20.2614Z" fill="white"/>
<circle cx="140" cy="20" r="20" fill="#EDF0F4"/>
<path d="M146.001 15.9833C145.574 15.738 145.026 15.738 144.539 15.9833L141.127 18.007L138.812 19.2948L135.461 21.3186C135.035 21.5639 134.486 21.5639 133.999 21.3186L131.379 19.7241C130.953 19.4788 130.648 18.9882 130.648 18.4363V15.37C130.648 14.8794 130.892 14.3888 131.379 14.0822L133.999 12.549C134.426 12.3037 134.974 12.3037 135.461 12.549L138.081 14.1435C138.507 14.3888 138.812 14.8794 138.812 15.4313V17.4551L141.127 16.1059V14.0209C141.127 13.5302 140.883 13.0396 140.396 12.733L135.522 9.85072C135.096 9.60542 134.547 9.60542 134.06 9.85072L129.064 12.7943C128.577 13.0396 128.333 13.5302 128.333 14.0209V19.7854C128.333 20.276 128.577 20.7667 129.064 21.0733L133.999 23.9556C134.426 24.2009 134.974 24.2009 135.461 23.9556L138.812 21.9932L141.127 20.644L144.478 18.6816C144.904 18.4363 145.452 18.4363 145.94 18.6816L148.56 20.2147C148.986 20.46 149.291 20.9506 149.291 21.5026V24.5688C149.291 25.0594 149.047 25.55 148.56 25.8567L146.001 27.3898C145.574 27.6351 145.026 27.6351 144.539 27.3898L141.919 25.8567C141.493 25.6114 141.188 25.1208 141.188 24.5688V22.6064L138.873 23.9556V25.9793C138.873 26.4699 139.117 26.9605 139.604 27.2671L144.539 30.1494C144.965 30.3947 145.513 30.3947 146.001 30.1494L150.936 27.2671C151.362 27.0218 151.667 26.5312 151.667 25.9793V20.1534C151.667 19.6628 151.423 19.1722 150.936 18.8656L146.001 15.9833Z" fill="#8247E5"/>
<path d="M170 40C181.046 40 190 31.0457 190 20C190 8.9543 181.046 0 170 0C158.954 0 150 8.9543 150 20C150 31.0457 158.954 40 170 40Z" fill="#FF0420"/>
<path fill-rule="evenodd" clip-rule="evenodd" d="M161.238 24.4636C162.097 25.0534 163.124 25.3483 164.164 25.3039C165.605 25.3039 166.754 24.9688 167.615 24.2987C168.475 23.6185 169.08 22.5932 169.43 21.2229C169.64 20.3827 169.82 19.5175 169.97 18.6272C170.015 18.3644 170.04 18.0986 170.045 17.8321C170.063 17.1918 169.879 16.562 169.52 16.0315C169.164 15.5166 168.663 15.1196 168.08 14.8911C167.424 14.6221 166.719 14.4894 166.01 14.501C163.179 14.501 161.423 15.8764 160.743 18.6272C160.503 19.6364 160.318 20.5016 160.188 21.2229C160.143 21.4907 160.118 21.7616 160.113 22.0331C160.09 22.4992 160.179 22.964 160.375 23.3875C160.571 23.811 160.868 24.1803 161.238 24.4636ZM165.8 22.6482C165.401 22.9816 164.894 23.1576 164.374 23.1433C163.414 23.1433 162.934 22.6832 162.934 21.7629C162.933 21.6446 162.94 21.5265 162.952 21.409C162.962 21.3164 162.976 21.2243 162.994 21.1328C163.174 20.1625 163.353 19.3423 163.534 18.6721C163.647 18.0911 163.941 17.5608 164.374 17.1567C164.78 16.8247 165.291 16.6491 165.814 16.6616C166.765 16.6614 167.24 17.1165 167.24 18.0269C167.24 18.2434 167.22 18.4594 167.18 18.6721C167.06 19.3727 166.885 20.1929 166.655 21.1328C166.541 21.7168 166.241 22.2484 165.8 22.6482Z" fill="white"/>
<path fill-rule="evenodd" clip-rule="evenodd" d="M170.597 25.1307C170.641 25.1489 170.688 25.1569 170.736 25.1541L172.777 25.1544C172.827 25.1536 172.876 25.1447 172.923 25.1283C172.973 25.1105 173.021 25.084 173.062 25.0495C173.149 24.9835 173.208 24.887 173.226 24.7794L173.916 21.4934H175.942C177.252 21.4934 178.282 21.2184 179.032 20.6682C179.841 20.0394 180.382 19.1283 180.548 18.1174C180.606 17.8613 180.636 17.5997 180.638 17.337C180.656 16.9444 180.571 16.5539 180.392 16.2039C180.214 15.854 179.947 15.5567 179.618 15.3413C178.818 14.8458 177.887 14.6051 176.947 14.6512H172.956C172.879 14.6523 172.805 14.6725 172.739 14.7094C172.715 14.7228 172.692 14.7384 172.67 14.7561C172.584 14.822 172.525 14.9186 172.506 15.0262L170.436 24.779C170.415 24.8715 170.431 24.9685 170.481 25.0492C170.507 25.0782 170.538 25.1021 170.573 25.1198L170.597 25.1307ZM177.143 19.0774C176.826 19.3097 176.441 19.431 176.048 19.4223H174.322L174.892 16.7367H176.693C177.002 16.7063 177.313 16.7918 177.563 16.9767C177.651 17.0613 177.72 17.1644 177.764 17.2785C177.808 17.3926 177.826 17.515 177.818 17.6371C177.816 17.7881 177.801 17.9387 177.773 18.0872C177.694 18.4844 177.469 18.8377 177.143 19.0774Z" fill="white"/>
<path d="M219.405 24.827C216.737 35.5347 205.892 42.0733 195.164 39.4029C184.456 36.7259 177.928 25.8808 180.597 15.173C183.266 4.46526 194.105 -2.07327 204.806 0.597122C215.54 3.23479 222.068 14.1127 219.405 24.827Z" fill="#0088CC"/>
<path fill-rule="evenodd" clip-rule="evenodd" d="M192.219 10.051H208.243C208.779 10.051 209.309 10.051 210.023 10.4083C210.738 10.7656 211.089 11.3015 211.446 11.6528C211.446 11.6528 211.446 11.6528 211.446 11.8314C211.803 12.3673 211.982 12.8973 211.982 13.6118C211.982 14.1478 211.803 14.8563 211.446 15.3923L201.3 32.6664C201.121 33.0237 200.585 33.2023 200.234 33.2023C199.877 33.2023 199.347 33.0237 199.168 32.6664L189.194 15.3923C189.015 15.035 188.658 14.505 188.479 13.6118C188.479 12.8973 188.658 12.1887 188.837 11.6528C189.194 11.1169 189.724 10.5869 190.26 10.2297C191.153 10.051 191.862 10.051 192.219 10.051ZM198.983 12.546H192.219C191.862 12.546 191.683 12.546 191.504 12.546C191.326 12.546 191.147 12.7246 191.147 12.9033C190.968 13.0819 190.968 13.2605 190.968 13.4392C190.968 13.6178 190.968 13.6178 191.326 14.1537L198.983 27.5098V12.546ZM201.478 12.546V27.5038L209.314 14.1478C209.314 13.9691 209.493 13.7905 209.493 13.4332C209.493 13.2546 209.493 13.0759 209.314 12.8973C209.136 12.7187 209.136 12.7187 209.136 12.7187C209.136 12.7187 209.136 12.7187 208.957 12.7187C208.779 12.7187 208.6 12.54 208.243 12.54H201.478V12.546Z" fill="white"/>
</svg>
