<svg width="26" height="21" viewBox="0 0 26 21" fill="none" xmlns="http://www.w3.org/2000/svg">
<path d="M21.5085 2.55225C19.9151 1.82113 18.2064 1.28246 16.4199 0.97395C16.3873 0.967996 16.3548 0.982876 16.3381 1.01264C16.1183 1.40349 15.8749 1.91338 15.7044 2.31415C13.7829 2.02648 11.8712 2.02648 9.98906 2.31415C9.81856 1.90447 9.56631 1.40349 9.34557 1.01264C9.32881 0.983869 9.29631 0.968989 9.26377 0.97395C7.47821 1.28148 5.76951 1.82014 4.17511 2.55225C4.16131 2.5582 4.14948 2.56813 4.14163 2.58102C0.900587 7.42306 0.0127309 12.1461 0.448283 16.8106C0.450254 16.8334 0.463064 16.8552 0.480802 16.8691C2.61915 18.4394 4.6905 19.3928 6.72339 20.0247C6.75592 20.0346 6.79039 20.0227 6.8111 19.9959C7.29198 19.3392 7.72064 18.6468 8.08817 17.9186C8.10987 17.876 8.08916 17.8254 8.04483 17.8085C7.3649 17.5506 6.71747 17.2361 6.09469 16.879C6.04543 16.8502 6.04149 16.7798 6.0868 16.7461C6.21786 16.6479 6.34895 16.5457 6.47409 16.4425C6.49673 16.4237 6.52828 16.4197 6.5549 16.4316C10.6463 18.2996 15.0757 18.2996 19.1189 16.4316C19.1455 16.4187 19.177 16.4227 19.2007 16.4415C19.3259 16.5447 19.4569 16.6479 19.5889 16.7461C19.6343 16.7798 19.6313 16.8502 19.582 16.879C18.9593 17.2431 18.3118 17.5506 17.6309 17.8075C17.5866 17.8244 17.5669 17.876 17.5886 17.9186C17.964 18.6458 18.3926 19.3382 18.8647 19.9949C18.8844 20.0227 18.9198 20.0346 18.9524 20.0247C20.9951 19.3928 23.0665 18.4394 25.2048 16.8691C25.2235 16.8552 25.2354 16.8344 25.2373 16.8116C25.7586 11.4189 24.3642 6.73461 21.541 2.58201C21.5341 2.56813 21.5223 2.5582 21.5085 2.55225ZM8.69916 13.9704C7.46737 13.9704 6.4524 12.8395 6.4524 11.4507C6.4524 10.0618 7.44768 8.93095 8.69916 8.93095C9.96046 8.93095 10.9656 10.0718 10.9459 11.4507C10.9459 12.8395 9.9506 13.9704 8.69916 13.9704ZM17.0062 13.9704C15.7744 13.9704 14.7594 12.8395 14.7594 11.4507C14.7594 10.0618 15.7547 8.93095 17.0062 8.93095C18.2675 8.93095 19.2726 10.0718 19.2529 11.4507C19.2529 12.8395 18.2675 13.9704 17.0062 13.9704Z" fill="#8D96A0"/>
</svg>
