<svg width="35" height="32" viewBox="0 0 35 32" fill="none" xmlns="http://www.w3.org/2000/svg">
<path d="M29.629 5.21144C27.3982 4.18786 25.006 3.43373 22.5049 3.00181C22.4593 2.99348 22.4138 3.01431 22.3903 3.05597C22.0827 3.60316 21.7419 4.31701 21.5033 4.8781C18.8131 4.47535 16.1367 4.47535 13.5017 4.8781C13.263 4.30454 12.9099 3.60316 12.6008 3.05597C12.5774 3.0157 12.5319 2.99487 12.4863 3.00181C9.98654 3.43235 7.59436 4.18648 5.3622 5.21144C5.34287 5.21977 5.32631 5.23367 5.31532 5.25171C0.777863 12.0306 -0.465136 18.6428 0.144638 25.1731C0.147397 25.205 0.165331 25.2356 0.190164 25.255C3.18385 27.4535 6.08374 28.7882 8.92978 29.6728C8.97533 29.6867 9.02359 29.6701 9.05258 29.6326C9.72581 28.7132 10.3259 27.7438 10.8405 26.7244C10.8709 26.6647 10.8419 26.5938 10.7798 26.5702C9.8279 26.2091 8.9215 25.7689 8.04961 25.2689C7.98064 25.2286 7.97512 25.13 8.03856 25.0828C8.22204 24.9453 8.40557 24.8022 8.58077 24.6578C8.61246 24.6314 8.65663 24.6258 8.6939 24.6425C14.4219 27.2577 20.6231 27.2577 26.2835 24.6425C26.3207 24.6245 26.3649 24.63 26.398 24.6564C26.5732 24.8008 26.7567 24.9453 26.9416 25.0828C27.005 25.13 27.0009 25.2286 26.9319 25.2689C26.06 25.7786 25.1536 26.2091 24.2003 26.5688C24.1383 26.5924 24.1107 26.6647 24.141 26.7244C24.6666 27.7424 25.2667 28.7118 25.9276 29.6312C25.9552 29.6701 26.0048 29.6867 26.0504 29.6728C28.9102 28.7882 31.8101 27.4535 34.8038 25.255C34.83 25.2356 34.8465 25.2064 34.8493 25.1745C35.5791 17.6248 33.627 11.0667 29.6745 5.25309C29.6648 5.23367 29.6483 5.21977 29.629 5.21144ZM11.6959 21.1968C9.97135 21.1968 8.5504 19.6136 8.5504 17.6692C8.5504 15.7248 9.9438 14.1416 11.6959 14.1416C13.4617 14.1416 14.8689 15.7387 14.8413 17.6692C14.8413 19.6136 13.4479 21.1968 11.6959 21.1968ZM23.3257 21.1968C21.6012 21.1968 20.1803 19.6136 20.1803 17.6692C20.1803 15.7248 21.5736 14.1416 23.3257 14.1416C25.0915 14.1416 26.4987 15.7387 26.4711 17.6692C26.4711 19.6136 25.0915 21.1968 23.3257 21.1968Z" fill="white"/>
</svg>
