<svg width="25" height="25" viewBox="0 0 25 25" fill="none" xmlns="http://www.w3.org/2000/svg">
<path d="M12.5 0C5.5965 0 0 5.61706 0 12.5459C0 18.4295 4.036 23.3665 9.4805 24.7225V16.3799H6.903V12.5459H9.4805V10.8939C9.4805 6.62374 11.406 4.6445 15.583 4.6445C16.375 4.6445 17.7415 4.80057 18.3005 4.95614V8.43136C18.0055 8.40024 17.493 8.38469 16.8565 8.38469C14.807 8.38469 14.015 9.16404 14.015 11.19V12.5459H18.098L17.3965 16.3799H14.015V25C20.2045 24.2498 25.0005 18.9604 25.0005 12.5459C25 5.61706 19.4035 0 12.5 0Z" fill="#8D96A0"/>
</svg>
