<svg width="26" height="25" viewBox="0 0 26 25" fill="none" xmlns="http://www.w3.org/2000/svg">
<path fill-rule="evenodd" clip-rule="evenodd" d="M13.0673 0C6.03219 0 0.344971 5.72914 0.344971 12.8169C0.344971 18.4825 3.98897 23.2783 9.04415 24.9757C9.67618 25.1033 9.90769 24.6999 9.90769 24.3606C9.90769 24.0634 9.88686 23.045 9.88686 21.9838C6.34781 22.7478 5.61083 20.4559 5.61083 20.4559C5.04209 18.9705 4.19938 18.5887 4.19938 18.5887C3.04105 17.8036 4.28376 17.8036 4.28376 17.8036C5.56865 17.8885 6.24286 19.1192 6.24286 19.1192C7.3801 21.0713 9.21264 20.5197 9.94988 20.1801C10.0551 19.3525 10.3923 18.7796 10.7504 18.4614C7.92775 18.1642 4.95797 17.0609 4.95797 12.1377C4.95797 10.7372 5.46318 9.59137 6.2637 8.70022C6.13739 8.382 5.69495 7.06612 6.39026 5.30493C6.39026 5.30493 7.46447 4.96534 9.8866 6.62055C10.9236 6.33999 11.993 6.19727 13.0673 6.19607C14.1415 6.19607 15.2366 6.34477 16.2478 6.62055C18.6702 4.96534 19.7444 5.30493 19.7444 5.30493C20.4397 7.06612 19.997 8.382 19.8707 8.70022C20.6923 9.59137 21.1767 10.7372 21.1767 12.1377C21.1767 17.0609 18.2069 18.1429 15.3631 18.4614C15.8267 18.8645 16.2267 19.6283 16.2267 20.8379C16.2267 22.5567 16.2058 23.9361 16.2058 24.3603C16.2058 24.6999 16.4376 25.1033 17.0694 24.9759C22.1246 23.278 25.7686 18.4825 25.7686 12.8169C25.7894 5.72914 20.0813 0 13.0673 0Z" fill="#8D96A0"/>
</svg>
