<svg width="33" height="32" viewBox="0 0 33 32" fill="none" xmlns="http://www.w3.org/2000/svg">
<path d="M26.5 7.75C26.5 8.99264 25.4926 10 24.25 10C23.0074 10 22 8.99264 22 7.75C22 6.50736 23.0074 5.5 24.25 5.5C25.4926 5.5 26.5 6.50736 26.5 7.75Z" fill="white"/>
<path fill-rule="evenodd" clip-rule="evenodd" d="M16 23.5C20.1421 23.5 23.5 20.1421 23.5 16C23.5 11.8579 20.1421 8.5 16 8.5C11.8579 8.5 8.5 11.8579 8.5 16C8.5 20.1421 11.8579 23.5 16 23.5ZM16 20.5C18.4853 20.5 20.5 18.4853 20.5 16C20.5 13.5147 18.4853 11.5 16 11.5C13.5147 11.5 11.5 13.5147 11.5 16C11.5 18.4853 13.5147 20.5 16 20.5Z" fill="white"/>
<path fill-rule="evenodd" clip-rule="evenodd" d="M1 15.4C1 10.3595 1 7.83929 1.98094 5.91409C2.8438 4.22063 4.22063 2.8438 5.91409 1.98094C7.83929 1 10.3595 1 15.4 1H16.6C21.6405 1 24.1607 1 26.0859 1.98094C27.7794 2.8438 29.1562 4.22063 30.0191 5.91409C31 7.83929 31 10.3595 31 15.4V16.6C31 21.6405 31 24.1607 30.0191 26.0859C29.1562 27.7794 27.7794 29.1562 26.0859 30.0191C24.1607 31 21.6405 31 16.6 31H15.4C10.3595 31 7.83929 31 5.91409 30.0191C4.22063 29.1562 2.8438 27.7794 1.98094 26.0859C1 24.1607 1 21.6405 1 16.6V15.4ZM15.4 4H16.6C19.1697 4 20.9166 4.00233 22.2669 4.11265C23.5821 4.22011 24.2547 4.41489 24.7239 4.65396C25.8529 5.2292 26.7708 6.14708 27.346 7.27606C27.5851 7.74526 27.7799 8.41787 27.8873 9.73311C27.9977 11.0834 28 12.8303 28 15.4V16.6C28 19.1697 27.9977 20.9166 27.8873 22.2669C27.7799 23.5821 27.5851 24.2547 27.346 24.7239C26.7708 25.8529 25.8529 26.7708 24.7239 27.346C24.2547 27.5851 23.5821 27.7799 22.2669 27.8873C20.9166 27.9977 19.1697 28 16.6 28H15.4C12.8303 28 11.0834 27.9977 9.73311 27.8873C8.41787 27.7799 7.74526 27.5851 7.27606 27.346C6.14708 26.7708 5.2292 25.8529 4.65396 24.7239C4.41489 24.2547 4.22011 23.5821 4.11265 22.2669C4.00233 20.9166 4 19.1697 4 16.6V15.4C4 12.8303 4.00233 11.0834 4.11265 9.73311C4.22011 8.41787 4.41489 7.74526 4.65396 7.27606C5.2292 6.14708 6.14708 5.2292 7.27606 4.65396C7.74526 4.41489 8.41787 4.22011 9.73311 4.11265C11.0834 4.00233 12.8303 4 15.4 4Z" fill="white"/>
</svg>
