<svg width="25" height="25" viewBox="0 0 25 25" fill="none" xmlns="http://www.w3.org/2000/svg">
<path d="M12.5029 2.25142C15.8434 2.25142 16.239 2.26607 17.5527 2.32467C18.7737 2.37839 19.433 2.58351 19.8725 2.75444C20.4537 2.9791 20.8737 3.25259 21.3084 3.68724C21.7479 4.12678 22.0165 4.5419 22.2412 5.12307C22.4121 5.56261 22.6172 6.2268 22.6709 7.44286C22.7295 8.76148 22.7442 9.15706 22.7442 12.4927C22.7442 15.8332 22.7295 16.2288 22.6709 17.5425C22.6172 18.7634 22.4121 19.4227 22.2412 19.8623C22.0165 20.4434 21.743 20.8635 21.3084 21.2981C20.8688 21.7376 20.4537 22.0063 19.8725 22.2309C19.433 22.4018 18.7688 22.607 17.5527 22.6607C16.2341 22.7193 15.8385 22.7339 12.5029 22.7339C9.16243 22.7339 8.76685 22.7193 7.45312 22.6607C6.23217 22.607 5.57287 22.4018 5.13333 22.2309C4.55216 22.0063 4.13215 21.7328 3.6975 21.2981C3.25796 20.8586 2.98935 20.4434 2.7647 19.8623C2.59377 19.4227 2.38865 18.7585 2.33493 17.5425C2.27632 16.2239 2.26167 15.8283 2.26167 12.4927C2.26167 9.15218 2.27632 8.75659 2.33493 7.44286C2.38865 6.22192 2.59377 5.56261 2.7647 5.12307C2.98935 4.5419 3.26284 4.1219 3.6975 3.68724C4.13704 3.2477 4.55216 2.9791 5.13333 2.75444C5.57287 2.58351 6.23706 2.37839 7.45312 2.32467C8.76685 2.26607 9.16243 2.25142 12.5029 2.25142ZM12.5029 0C9.10871 0 8.68383 0.0146513 7.35056 0.0732565C6.02217 0.131862 5.10891 0.346747 4.31774 0.654425C3.49238 0.976753 2.794 1.40164 2.10051 2.10002C1.40213 2.79351 0.977242 3.49189 0.654913 4.31237C0.347236 5.10842 0.13235 6.0168 0.0737448 7.34518C0.0151396 8.68334 0.000488281 9.10822 0.000488281 12.5024C0.000488281 15.8967 0.0151396 16.3215 0.0737448 17.6548C0.13235 18.9832 0.347236 19.8965 0.654913 20.6876C0.977242 21.513 1.40213 22.2114 2.10051 22.9049C2.794 23.5984 3.49238 24.0281 4.31285 24.3456C5.10891 24.6533 6.01729 24.8681 7.34567 24.9267C8.67894 24.9853 9.10383 25 12.498 25C15.8923 25 16.3172 24.9853 17.6504 24.9267C18.9788 24.8681 19.8921 24.6533 20.6832 24.3456C21.5037 24.0281 22.2021 23.5984 22.8956 22.9049C23.5891 22.2114 24.0189 21.513 24.3363 20.6925C24.644 19.8965 24.8589 18.9881 24.9175 17.6597C24.9761 16.3264 24.9907 15.9015 24.9907 12.5073C24.9907 9.11311 24.9761 8.68822 24.9175 7.35495C24.8589 6.02657 24.644 5.1133 24.3363 4.32213C24.0286 3.49189 23.6037 2.79351 22.9054 2.10002C22.2119 1.40652 21.5135 0.976753 20.693 0.659308C19.897 0.351631 18.9886 0.136745 17.6602 0.0781403C16.322 0.0146513 15.8971 0 12.5029 0Z" fill="#8D96A0"/>
<path d="M12.503 6.08008C8.95735 6.08008 6.08081 8.95662 6.08081 12.5022C6.08081 16.0478 8.95735 18.9244 12.503 18.9244C16.0486 18.9244 18.9251 16.0478 18.9251 12.5022C18.9251 8.95662 16.0486 6.08008 12.503 6.08008ZM12.503 16.6681C10.2027 16.6681 8.33711 14.8025 8.33711 12.5022C8.33711 10.202 10.2027 8.33638 12.503 8.33638C14.8032 8.33638 16.6688 10.202 16.6688 12.5022C16.6688 14.8025 14.8032 16.6681 12.503 16.6681Z" fill="#8D96A0"/>
<path d="M20.6783 5.82744C20.6783 6.65768 20.0044 7.32676 19.179 7.32676C18.3488 7.32676 17.6797 6.6528 17.6797 5.82744C17.6797 4.9972 18.3536 4.32812 19.179 4.32812C20.0044 4.32812 20.6783 5.00209 20.6783 5.82744Z" fill="#8D96A0"/>
</svg>
