<svg width="26" height="25" viewBox="0 0 26 25" fill="none" xmlns="http://www.w3.org/2000/svg">
<path d="M23.4944 0H2.19067C1.17017 0 0.344971 0.805664 0.344971 1.80176V23.1934C0.344971 24.1895 1.17017 25 2.19067 25H23.4944C24.5149 25 25.345 24.1895 25.345 23.1982V1.80176C25.345 0.805664 24.5149 0 23.4944 0ZM7.76196 21.3037H4.05103V9.37012H7.76196V21.3037ZM5.90649 7.74414C4.71509 7.74414 3.75317 6.78223 3.75317 5.5957C3.75317 4.40918 4.71509 3.44727 5.90649 3.44727C7.09302 3.44727 8.05493 4.40918 8.05493 5.5957C8.05493 6.77734 7.09302 7.74414 5.90649 7.74414ZM21.6487 21.3037H17.9426V15.5029C17.9426 14.1211 17.9182 12.3389 16.0139 12.3389C14.0852 12.3389 13.7922 13.8477 13.7922 15.4053V21.3037H10.0911V9.37012H13.6458V11.001H13.6946C14.1877 10.0635 15.3987 9.07227 17.2004 9.07227C20.9553 9.07227 21.6487 11.543 21.6487 14.7559V21.3037Z" fill="#8D96A0"/>
</svg>
