<svg width="26" height="19" viewBox="0 0 26 19" fill="none" xmlns="http://www.w3.org/2000/svg">
<path d="M25.0959 4.50195C25.0959 4.50195 24.8518 2.77832 24.0999 2.02148C23.1477 1.02539 22.0833 1.02051 21.595 0.961914C18.0989 0.708008 12.8499 0.708008 12.8499 0.708008H12.8401C12.8401 0.708008 7.59106 0.708008 4.09497 0.961914C3.60669 1.02051 2.54224 1.02539 1.59009 2.02148C0.838135 2.77832 0.598877 4.50195 0.598877 4.50195C0.598877 4.50195 0.344971 6.52832 0.344971 8.54981V10.4443C0.344971 12.4658 0.593994 14.4922 0.593994 14.4922C0.593994 14.4922 0.838135 16.2158 1.5852 16.9727C2.53735 17.9688 3.78735 17.9346 4.34399 18.042C6.34595 18.2324 12.845 18.291 12.845 18.291C12.845 18.291 18.0989 18.2813 21.595 18.0322C22.0833 17.9736 23.1477 17.9688 24.0999 16.9727C24.8518 16.2158 25.0959 14.4922 25.0959 14.4922C25.0959 14.4922 25.345 12.4707 25.345 10.4443V8.54981C25.345 6.52832 25.0959 4.50195 25.0959 4.50195ZM10.262 12.7441V5.71777L17.0149 9.24316L10.262 12.7441Z" fill="#8D96A0"/>
</svg>
