<svg width="121" height="1116" viewBox="0 0 121 1116" fill="none" xmlns="http://www.w3.org/2000/svg">
<g clip-path="url(#clip0_2029_942)">
<path d="M1.86222 310.453L1.86211 341.66C1.86202 367.25 11.5021 391.902 28.8621 410.703C46.2219 429.505 55.862 454.156 55.862 479.746V591.313C55.862 617.182 46.2378 642.126 28.8621 661.293C11.4864 680.458 1.86218 705.403 1.86213 731.273L1.86206 762.003" stroke="url(#paint0_linear_2029_942)" stroke-width="3"/>
<g filter="url(#filter0_diii_2029_942)">
<path d="M56.2699 530.292C59.5804 530.292 62.264 532.975 62.264 536.286C62.264 539.596 59.5804 542.28 56.2699 542.28C52.9595 542.28 50.2759 539.596 50.2759 536.286C50.2759 532.975 52.9595 530.292 56.2699 530.292Z" fill="black"/>
<path d="M56.2699 531.688C58.809 531.688 60.8674 533.747 60.8674 536.286C60.8674 538.825 58.809 540.883 56.2699 540.883C53.7307 540.883 51.6724 538.825 51.6724 536.286C51.6724 533.747 53.7307 531.688 56.2699 531.688Z" stroke="white" stroke-width="3"/>
</g>
</g>
<rect width="3" height="1116" fill="url(#paint1_linear_2029_942)"/>
<defs>
<filter id="filter0_diii_2029_942" x="35.1724" y="515.188" width="42.1951" height="42.1949" filterUnits="userSpaceOnUse" color-interpolation-filters="sRGB">
<feFlood flood-opacity="0" result="BackgroundImageFix"/>
<feColorMatrix in="SourceAlpha" type="matrix" values="0 0 0 0 0 0 0 0 0 0 0 0 0 0 0 0 0 0 127 0" result="hardAlpha"/>
<feOffset/>
<feGaussianBlur stdDeviation="7.5"/>
<feComposite in2="hardAlpha" operator="out"/>
<feColorMatrix type="matrix" values="0 0 0 0 0.337255 0 0 0 0 0.827451 0 0 0 0 0.395098 0 0 0 1 0"/>
<feBlend mode="normal" in2="BackgroundImageFix" result="effect1_dropShadow_2029_942"/>
<feBlend mode="normal" in="SourceGraphic" in2="effect1_dropShadow_2029_942" result="shape"/>
<feColorMatrix in="SourceAlpha" type="matrix" values="0 0 0 0 0 0 0 0 0 0 0 0 0 0 0 0 0 0 127 0" result="hardAlpha"/>
<feOffset/>
<feGaussianBlur stdDeviation="7.5"/>
<feComposite in2="hardAlpha" operator="arithmetic" k2="-1" k3="1"/>
<feColorMatrix type="matrix" values="0 0 0 0 0.337255 0 0 0 0 0.827451 0 0 0 0 0.392157 0 0 0 1 0"/>
<feBlend mode="normal" in2="shape" result="effect2_innerShadow_2029_942"/>
<feColorMatrix in="SourceAlpha" type="matrix" values="0 0 0 0 0 0 0 0 0 0 0 0 0 0 0 0 0 0 127 0" result="hardAlpha"/>
<feOffset/>
<feGaussianBlur stdDeviation="10"/>
<feComposite in2="hardAlpha" operator="arithmetic" k2="-1" k3="1"/>
<feColorMatrix type="matrix" values="0 0 0 0 0.337255 0 0 0 0 0.827451 0 0 0 0 0.392157 0 0 0 1 0"/>
<feBlend mode="normal" in2="effect2_innerShadow_2029_942" result="effect3_innerShadow_2029_942"/>
<feColorMatrix in="SourceAlpha" type="matrix" values="0 0 0 0 0 0 0 0 0 0 0 0 0 0 0 0 0 0 127 0" result="hardAlpha"/>
<feOffset/>
<feGaussianBlur stdDeviation="2.5"/>
<feComposite in2="hardAlpha" operator="arithmetic" k2="-1" k3="1"/>
<feColorMatrix type="matrix" values="0 0 0 0 0.337255 0 0 0 0 0.827451 0 0 0 0 0.392157 0 0 0 1 0"/>
<feBlend mode="normal" in2="effect3_innerShadow_2029_942" result="effect4_innerShadow_2029_942"/>
</filter>
<linearGradient id="paint0_linear_2029_942" x1="22.3447" y1="310.453" x2="20.9482" y2="762.003" gradientUnits="userSpaceOnUse">
<stop offset="0.0515742" stop-color="#196C2E" stop-opacity="0"/>
<stop offset="0.225992" stop-color="#2EA043"/>
<stop offset="0.47249" stop-color="#2EA043"/>
<stop offset="0.522324" stop-color="#56D364"/>
<stop offset="0.561417" stop-color="#2EA043"/>
<stop offset="0.791714" stop-color="#2EA043"/>
<stop offset="0.956186" stop-color="#196C2E" stop-opacity="0"/>
</linearGradient>
<linearGradient id="paint1_linear_2029_942" x1="1.5" y1="0" x2="1.5" y2="1116" gradientUnits="userSpaceOnUse">
<stop stop-opacity="0"/>
<stop offset="0.333333" stop-color="#3FB950"/>
<stop offset="0.666667" stop-color="#3FB950"/>
<stop offset="1" stop-opacity="0"/>
</linearGradient>
<clipPath id="clip0_2029_942">
<rect width="81" height="451.55" fill="white" transform="translate(0 310.453)"/>
</clipPath>
</defs>
</svg>
