<svg width="646" height="537" viewBox="0 0 646 537" fill="none" xmlns="http://www.w3.org/2000/svg">
<g filter="url(#filter0_bi_2259_2)">
<path d="M217.455 209.465C216.55 207.817 215.229 206.436 213.623 205.459L126.79 152.394C125.087 151.354 123.131 150.804 121.135 150.804C119.14 150.804 117.183 151.354 115.48 152.394L28.6475 205.459C27.042 206.436 25.7209 207.817 24.816 209.465L121.135 268.337L217.455 209.465Z" fill="url(#paint0_linear_2259_2)"/>
<path d="M24.816 209.465C23.9207 211.075 23.4397 212.895 23.438 214.738V311.1C23.439 312.96 23.9177 314.788 24.8281 316.409C25.7385 318.03 27.0501 319.39 28.6371 320.359L115.47 373.424C117.172 374.466 119.129 375.018 121.125 375.02L121.135 268.337L24.816 209.465Z" fill="url(#paint1_linear_2259_2)"/>
<path d="M217.455 209.465C218.35 211.075 218.81 212.895 218.812 214.738V311.1C218.811 312.96 218.332 314.788 217.422 316.409C216.512 318.03 215.2 319.39 213.613 320.359L126.78 373.424C125.078 374.466 123.121 375.018 121.125 375.02L121.135 268.337L217.455 209.465Z" fill="url(#paint2_linear_2259_2)"/>
</g>
<g filter="url(#filter1_bi_2259_2)">
<path d="M217.464 209.465C216.559 207.817 215.238 206.436 213.632 205.459L126.799 152.394C125.096 151.354 123.14 150.804 121.144 150.804C119.149 150.804 117.192 151.354 115.489 152.394L28.6565 205.459C27.051 206.436 25.7299 207.817 24.825 209.465L121.144 268.337L217.464 209.465Z" fill="url(#paint3_linear_2259_2)"/>
<path d="M24.825 209.465C23.9297 211.075 23.4487 212.895 23.447 214.738V311.1C23.4481 312.96 23.9267 314.788 24.8371 316.409C25.7475 318.03 27.0591 319.39 28.6461 320.359L115.479 373.424C117.181 374.466 119.138 375.018 121.134 375.02L121.144 268.337L24.825 209.465Z" fill="url(#paint4_linear_2259_2)"/>
<path d="M217.464 209.465C218.359 211.075 218.819 212.895 218.821 214.738V311.1C218.82 312.96 218.341 314.788 217.431 316.409C216.521 318.03 215.209 319.39 213.622 320.359L126.789 373.424C125.087 374.466 123.13 375.018 121.134 375.02L121.144 268.337L217.464 209.465Z" fill="url(#paint5_linear_2259_2)"/>
</g>
<g filter="url(#filter2_bi_2259_2)">
<path d="M326.579 249.462C326.546 249.4 326.496 249.349 326.437 249.313L323.211 247.341C323.148 247.303 323.075 247.282 323.001 247.282C322.927 247.282 322.854 247.303 322.791 247.341L319.565 249.313C319.505 249.349 319.456 249.4 319.422 249.462L323.001 251.649L326.579 249.462Z" fill="url(#paint6_linear_2259_2)"/>
<path d="M319.422 249.462C319.389 249.521 319.371 249.589 319.371 249.657V253.238C319.371 253.307 319.389 253.374 319.423 253.435C319.457 253.495 319.505 253.545 319.564 253.581L322.79 255.553C322.853 255.592 322.926 255.612 323 255.612L323.001 251.649L319.422 249.462Z" fill="url(#paint7_linear_2259_2)"/>
<path d="M326.579 249.462C326.612 249.521 326.63 249.589 326.63 249.657V253.238C326.63 253.307 326.612 253.374 326.578 253.435C326.544 253.495 326.495 253.545 326.436 253.581L323.21 255.553C323.147 255.592 323.074 255.612 323 255.612L323.001 251.649L326.579 249.462Z" fill="url(#paint8_linear_2259_2)"/>
</g>
<g filter="url(#filter3_bi_2259_2)">
<path d="M334.079 254.271C334.046 254.21 333.996 254.158 333.937 254.122L330.711 252.151C330.648 252.112 330.575 252.092 330.501 252.092C330.427 252.092 330.354 252.112 330.291 252.151L327.065 254.122C327.005 254.158 326.956 254.21 326.922 254.271L330.501 256.458L334.079 254.271Z" fill="url(#paint9_linear_2259_2)"/>
<path d="M326.922 254.271C326.889 254.331 326.871 254.398 326.871 254.467V258.047C326.871 258.116 326.889 258.184 326.923 258.244C326.957 258.304 327.005 258.355 327.064 258.391L330.29 260.362C330.353 260.401 330.426 260.421 330.5 260.422L330.501 256.458L326.922 254.271Z" fill="url(#paint10_linear_2259_2)"/>
<path d="M334.079 254.271C334.112 254.331 334.13 254.398 334.13 254.467V258.047C334.13 258.116 334.112 258.184 334.078 258.244C334.044 258.304 333.995 258.355 333.936 258.391L330.71 260.362C330.647 260.401 330.574 260.421 330.5 260.422L330.501 256.458L334.079 254.271Z" fill="url(#paint11_linear_2259_2)"/>
</g>
<g filter="url(#filter4_bi_2259_2)">
<path d="M326.579 259.787C326.545 259.726 326.496 259.674 326.437 259.638L323.211 257.666C323.147 257.628 323.075 257.607 323 257.607C322.926 257.607 322.854 257.628 322.79 257.666L319.564 259.638C319.505 259.674 319.456 259.726 319.422 259.787L323 261.974L326.579 259.787Z" fill="url(#paint12_linear_2259_2)"/>
<path d="M319.422 259.787C319.389 259.847 319.371 259.914 319.371 259.983V263.563C319.371 263.632 319.389 263.7 319.422 263.76C319.456 263.82 319.505 263.871 319.564 263.907L322.79 265.878C322.853 265.917 322.926 265.937 323 265.937L323 261.974L319.422 259.787Z" fill="url(#paint13_linear_2259_2)"/>
<path d="M326.579 259.787C326.612 259.847 326.629 259.914 326.629 259.983V263.563C326.629 263.632 326.612 263.7 326.578 263.76C326.544 263.82 326.495 263.871 326.436 263.907L323.21 265.878C323.147 265.917 323.074 265.937 323 265.937L323 261.974L326.579 259.787Z" fill="url(#paint14_linear_2259_2)"/>
</g>
<g filter="url(#filter5_bi_2259_2)">
<path d="M442.429 73.0395C441.307 70.9971 439.669 69.2848 437.679 68.0734L330.012 2.27557C327.9 0.986624 325.474 0.304688 323 0.304688C320.526 0.304688 318.1 0.986624 315.988 2.27557L208.322 68.0734C206.331 69.2848 204.693 70.9971 203.571 73.0395L323 146.024L442.429 73.0395Z" fill="#050505" fill-opacity="0.05"/>
<path d="M442.429 73.0395C441.307 70.9971 439.669 69.2848 437.679 68.0734L330.012 2.27557C327.9 0.986624 325.474 0.304688 323 0.304688C320.526 0.304688 318.1 0.986624 315.988 2.27557L208.322 68.0734C206.331 69.2848 204.693 70.9971 203.571 73.0395L323 146.024L442.429 73.0395Z" fill="url(#paint15_linear_2259_2)" fill-opacity="0.2"/>
<path d="M437.6 68.2014L437.601 68.2015C439.528 69.3745 441.121 71.0224 442.228 72.9866L323 145.848L203.772 72.9866C204.879 71.0224 206.472 69.3745 208.4 68.2015L208.4 68.2014L316.066 2.4036C318.155 1.12902 320.554 0.454688 323 0.454688C325.446 0.454688 327.846 1.12902 329.934 2.4036L437.6 68.2014Z" stroke="url(#paint16_linear_2259_2)" stroke-opacity="0.1" stroke-width="0.3"/>
</g>
<g filter="url(#filter6_bi_2259_2)">
<path d="M203.571 73.0376C202.463 75.0302 201.879 77.2716 201.875 79.5514V199.035C201.876 201.34 202.47 203.606 203.599 205.617C204.727 207.627 206.354 209.313 208.322 210.514L315.988 276.312C318.099 277.604 320.525 278.288 323 278.291V146.022L203.571 73.0376Z" fill="#050505" fill-opacity="0.05"/>
<path d="M203.571 73.0376C202.463 75.0302 201.879 77.2716 201.875 79.5514V199.035C201.876 201.34 202.47 203.606 203.599 205.617C204.727 207.627 206.354 209.313 208.322 210.514L315.988 276.312C318.099 277.604 320.525 278.288 323 278.291V146.022L203.571 73.0376Z" fill="url(#paint17_linear_2259_2)" fill-opacity="0.2"/>
<path d="M202.025 199.035V79.5516C202.029 77.3493 202.58 75.1834 203.627 73.2476L322.85 146.106V278.14C320.455 278.11 318.111 277.435 316.066 276.184L315.991 276.307L316.066 276.184L208.4 210.386L208.322 210.514L208.4 210.386C206.454 209.199 204.846 207.531 203.729 205.543C202.613 203.555 202.026 201.314 202.025 199.035Z" stroke="url(#paint18_linear_2259_2)" stroke-opacity="0.1" stroke-width="0.3"/>
</g>
<g filter="url(#filter7_bi_2259_2)">
<path d="M442.429 73.0376C443.537 75.0302 444.121 77.2716 444.125 79.5514V199.035C444.124 201.34 443.53 203.606 442.401 205.617C441.273 207.627 439.646 209.313 437.678 210.514L330.012 276.312C327.901 277.604 325.475 278.288 323 278.291V146.022L442.429 73.0376Z" fill="#050505" fill-opacity="0.05"/>
<path d="M442.429 73.0376C443.537 75.0302 444.121 77.2716 444.125 79.5514V199.035C444.124 201.34 443.53 203.606 442.401 205.617C441.273 207.627 439.646 209.313 437.678 210.514L330.012 276.312C327.901 277.604 325.475 278.288 323 278.291V146.022L442.429 73.0376Z" fill="url(#paint19_linear_2259_2)" fill-opacity="0.2"/>
<path d="M329.934 276.184L330.012 276.312L329.934 276.184C327.889 277.435 325.545 278.11 323.15 278.14V146.106L442.373 73.2476C443.42 75.1834 443.971 77.3494 443.975 79.5517V199.035C443.974 201.314 443.387 203.555 442.271 205.543C441.154 207.531 439.546 209.199 437.6 210.386L437.675 210.51L437.6 210.386L329.934 276.184Z" stroke="url(#paint20_linear_2259_2)" stroke-opacity="0.1" stroke-width="0.3"/>
</g>
<g filter="url(#filter8_bi_2259_2)">
<path d="M644.304 196.635C643.182 194.593 641.544 192.881 639.554 191.669L531.887 125.872C529.775 124.583 527.349 123.901 524.875 123.901C522.401 123.901 519.975 124.583 517.863 125.872L410.197 191.669C408.206 192.881 406.568 194.593 405.446 196.635L524.875 269.633L644.304 196.635Z" fill="#050505" fill-opacity="0.05"/>
<path d="M644.304 196.635C643.182 194.593 641.544 192.881 639.554 191.669L531.887 125.872C529.775 124.583 527.349 123.901 524.875 123.901C522.401 123.901 519.975 124.583 517.863 125.872L410.197 191.669C408.206 192.881 406.568 194.593 405.446 196.635L524.875 269.633L644.304 196.635Z" fill="url(#paint21_linear_2259_2)" fill-opacity="0.2"/>
<path d="M639.475 191.797L639.476 191.797C641.403 192.97 642.996 194.618 644.103 196.583L524.875 269.458L405.647 196.583C406.754 194.618 408.347 192.97 410.275 191.797L410.275 191.797L517.941 126C520.03 124.725 522.429 124.051 524.875 124.051C527.321 124.051 529.721 124.725 531.809 126L639.475 191.797Z" stroke="url(#paint22_linear_2259_2)" stroke-opacity="0.1" stroke-width="0.3"/>
</g>
<g filter="url(#filter9_bi_2259_2)">
<path d="M405.446 196.646C404.336 198.643 403.752 200.889 403.75 203.174V322.657C403.751 324.962 404.345 327.229 405.474 329.239C406.602 331.249 408.229 332.936 410.197 334.137L517.863 399.935C519.974 401.226 522.4 401.911 524.875 401.913V269.644L405.446 196.646Z" fill="#050505" fill-opacity="0.05"/>
<path d="M405.446 196.646C404.336 198.643 403.752 200.889 403.75 203.174V322.657C403.751 324.962 404.345 327.229 405.474 329.239C406.602 331.249 408.229 332.936 410.197 334.137L517.863 399.935C519.974 401.226 522.4 401.911 524.875 401.913V269.644L405.446 196.646Z" fill="url(#paint23_linear_2259_2)" fill-opacity="0.2"/>
<path d="M403.9 322.657V203.174C403.902 200.967 404.453 198.796 405.502 196.856L524.725 269.729V401.762C522.33 401.733 519.986 401.058 517.941 399.807L517.871 399.922L517.941 399.807L410.275 334.009L410.197 334.137L410.275 334.009C408.329 332.821 406.721 331.153 405.604 329.166C404.488 327.178 403.901 324.937 403.9 322.657Z" stroke="url(#paint24_linear_2259_2)" stroke-opacity="0.1" stroke-width="0.3"/>
</g>
<g filter="url(#filter10_bi_2259_2)">
<path d="M644.304 196.646C645.414 198.643 645.998 200.889 646 203.174V322.657C645.999 324.962 645.405 327.229 644.276 329.239C643.148 331.249 641.521 332.936 639.553 334.137L531.887 399.935C529.776 401.226 527.35 401.911 524.875 401.913V269.644L644.304 196.646Z" fill="#050505" fill-opacity="0.05"/>
<path d="M644.304 196.646C645.414 198.643 645.998 200.889 646 203.174V322.657C645.999 324.962 645.405 327.229 644.276 329.239C643.148 331.249 641.521 332.936 639.553 334.137L531.887 399.935C529.776 401.226 527.35 401.911 524.875 401.913V269.644L644.304 196.646Z" fill="url(#paint25_linear_2259_2)" fill-opacity="0.2"/>
<path d="M531.809 399.807L531.883 399.928L531.809 399.807C529.764 401.058 527.42 401.733 525.025 401.762V269.729L644.248 196.856C645.297 198.796 645.848 200.967 645.85 203.174V322.657C645.849 324.937 645.262 327.178 644.146 329.166C643.029 331.153 641.421 332.821 639.475 334.009L639.55 334.132L639.475 334.009L531.809 399.807Z" stroke="url(#paint26_linear_2259_2)" stroke-opacity="0.1" stroke-width="0.3"/>
</g>
<g filter="url(#filter11_bi_2259_2)">
<path d="M240.554 196.635C239.432 194.593 237.794 192.881 235.804 191.669L128.137 125.872C126.025 124.583 123.599 123.901 121.125 123.901C118.651 123.901 116.225 124.583 114.113 125.872L6.44659 191.669C4.45596 192.881 2.81787 194.593 1.6958 196.635L121.125 269.633L240.554 196.635Z" fill="#050505" fill-opacity="0.05"/>
<path d="M240.554 196.635C239.432 194.593 237.794 192.881 235.804 191.669L128.137 125.872C126.025 124.583 123.599 123.901 121.125 123.901C118.651 123.901 116.225 124.583 114.113 125.872L6.44659 191.669C4.45596 192.881 2.81787 194.593 1.6958 196.635L121.125 269.633L240.554 196.635Z" fill="url(#paint27_linear_2259_2)" fill-opacity="0.2"/>
<path d="M235.725 191.797L235.726 191.797C237.653 192.97 239.246 194.618 240.353 196.583L121.125 269.458L1.89689 196.583C3.00398 194.618 4.59714 192.97 6.52457 191.797L6.52481 191.797L114.191 126C116.28 124.725 118.679 124.051 121.125 124.051C123.571 124.051 125.971 124.725 128.059 126L235.725 191.797Z" stroke="url(#paint28_linear_2259_2)" stroke-opacity="0.1" stroke-width="0.3"/>
</g>
<g filter="url(#filter12_bi_2259_2)">
<path d="M1.69575 196.646C0.585689 198.643 0.00211696 200.889 0 203.174L0 322.657C0.00128361 324.962 0.594785 327.229 1.7236 329.239C2.85242 331.249 4.47871 332.936 6.44654 334.137L114.113 399.935C116.224 401.226 118.65 401.911 121.125 401.913V269.644L1.69575 196.646Z" fill="#050505" fill-opacity="0.05"/>
<path d="M1.69575 196.646C0.585689 198.643 0.00211696 200.889 0 203.174L0 322.657C0.00128361 324.962 0.594785 327.229 1.7236 329.239C2.85242 331.249 4.47871 332.936 6.44654 334.137L114.113 399.935C116.224 401.226 118.65 401.911 121.125 401.913V269.644L1.69575 196.646Z" fill="url(#paint29_linear_2259_2)" fill-opacity="0.2"/>
<path d="M0.15 322.657V203.174C0.152056 200.967 0.702839 198.796 1.75168 196.856L120.975 269.729V401.762C118.58 401.733 116.236 401.058 114.191 399.807L114.121 399.922L114.191 399.807L6.52476 334.009L6.44673 334.137L6.52469 334.009C4.57879 332.821 2.97063 331.153 1.85439 329.166C0.738156 327.178 0.151269 324.937 0.15 322.657Z" stroke="url(#paint30_linear_2259_2)" stroke-opacity="0.1" stroke-width="0.3"/>
</g>
<g filter="url(#filter13_bi_2259_2)">
<path d="M240.554 196.646C241.664 198.643 242.248 200.889 242.25 203.174V322.657C242.249 324.962 241.655 327.229 240.526 329.239C239.398 331.249 237.771 332.936 235.803 334.137L128.137 399.935C126.026 401.226 123.6 401.911 121.125 401.913V269.644L240.554 196.646Z" fill="#050505" fill-opacity="0.05"/>
<path d="M240.554 196.646C241.664 198.643 242.248 200.889 242.25 203.174V322.657C242.249 324.962 241.655 327.229 240.526 329.239C239.398 331.249 237.771 332.936 235.803 334.137L128.137 399.935C126.026 401.226 123.6 401.911 121.125 401.913V269.644L240.554 196.646Z" fill="url(#paint31_linear_2259_2)" fill-opacity="0.2"/>
<path d="M128.059 399.807L128.133 399.928L128.059 399.807C126.014 401.058 123.67 401.733 121.275 401.762V269.729L240.498 196.856C241.547 198.796 242.098 200.967 242.1 203.174V322.657C242.099 324.937 241.512 327.178 240.396 329.166C239.279 331.153 237.671 332.821 235.725 334.009L235.8 334.132L235.725 334.009L128.059 399.807Z" stroke="url(#paint32_linear_2259_2)" stroke-opacity="0.1" stroke-width="0.3"/>
</g>
<g filter="url(#filter14_bi_2259_2)">
<path d="M442.429 331.061C441.307 329.019 439.669 327.306 437.679 326.095L330.012 260.297C327.9 259.008 325.474 258.326 323 258.326C320.526 258.326 318.1 259.008 315.988 260.297L208.322 326.095C206.331 327.306 204.693 329.019 203.571 331.061L323 404.045L442.429 331.061Z" fill="#050505" fill-opacity="0.05"/>
<path d="M442.429 331.061C441.307 329.019 439.669 327.306 437.679 326.095L330.012 260.297C327.9 259.008 325.474 258.326 323 258.326C320.526 258.326 318.1 259.008 315.988 260.297L208.322 326.095C206.331 327.306 204.693 329.019 203.571 331.061L323 404.045L442.429 331.061Z" fill="url(#paint33_linear_2259_2)" fill-opacity="0.2"/>
<path d="M437.6 326.223L437.601 326.223C439.528 327.396 441.121 329.044 442.228 331.008L323 403.87L203.772 331.008C204.879 329.044 206.472 327.396 208.4 326.223L208.4 326.223L316.066 260.425C318.155 259.151 320.554 258.476 323 258.476C325.446 258.476 327.846 259.151 329.934 260.425L437.6 326.223Z" stroke="url(#paint34_linear_2259_2)" stroke-opacity="0.1" stroke-width="0.3"/>
</g>
<g filter="url(#filter15_bi_2259_2)">
<path d="M203.571 331.059C202.463 333.052 201.879 335.293 201.875 337.573V457.056C201.876 459.361 202.47 461.628 203.599 463.638C204.727 465.648 206.354 467.335 208.322 468.536L315.988 534.334C318.099 535.625 320.525 536.31 323 536.312V404.044L203.571 331.059Z" fill="#050505" fill-opacity="0.05"/>
<path d="M203.571 331.059C202.463 333.052 201.879 335.293 201.875 337.573V457.056C201.876 459.361 202.47 461.628 203.599 463.638C204.727 465.648 206.354 467.335 208.322 468.536L315.988 534.334C318.099 535.625 320.525 536.31 323 536.312V404.044L203.571 331.059Z" fill="url(#paint35_linear_2259_2)" fill-opacity="0.2"/>
<path d="M202.025 457.056V337.573C202.029 335.371 202.58 333.205 203.627 331.269L322.85 404.128V536.161C320.455 536.132 318.111 535.457 316.066 534.206L315.991 534.328L316.066 534.206L208.4 468.408L208.322 468.536L208.4 468.408C206.454 467.22 204.846 465.552 203.729 463.565C202.613 461.577 202.026 459.336 202.025 457.056Z" stroke="url(#paint36_linear_2259_2)" stroke-opacity="0.1" stroke-width="0.3"/>
</g>
<g filter="url(#filter16_bi_2259_2)">
<path d="M442.429 331.059C443.537 333.052 444.121 335.293 444.125 337.573V457.056C444.124 459.361 443.53 461.628 442.401 463.638C441.273 465.648 439.646 467.335 437.678 468.536L330.012 534.334C327.901 535.625 325.475 536.31 323 536.312V404.044L442.429 331.059Z" fill="#050505" fill-opacity="0.05"/>
<path d="M442.429 331.059C443.537 333.052 444.121 335.293 444.125 337.573V457.056C444.124 459.361 443.53 461.628 442.401 463.638C441.273 465.648 439.646 467.335 437.678 468.536L330.012 534.334C327.901 535.625 325.475 536.31 323 536.312V404.044L442.429 331.059Z" fill="url(#paint37_linear_2259_2)" fill-opacity="0.2"/>
<path d="M329.934 534.206L330.012 534.334L329.934 534.206C327.889 535.457 325.545 536.132 323.15 536.161V404.128L442.373 331.269C443.42 333.205 443.971 335.371 443.975 337.573V457.056C443.974 459.336 443.387 461.577 442.271 463.565C441.154 465.552 439.546 467.22 437.6 468.408L437.675 468.531L437.6 468.408L329.934 534.206Z" stroke="url(#paint38_linear_2259_2)" stroke-opacity="0.1" stroke-width="0.3"/>
</g>
<defs>
<filter id="filter0_bi_2259_2" x="21.0185" y="148.385" width="200.213" height="229.055" filterUnits="userSpaceOnUse" color-interpolation-filters="sRGB">
<feFlood flood-opacity="0" result="BackgroundImageFix"/>
<feGaussianBlur in="BackgroundImageFix" stdDeviation="1.20974"/>
<feComposite in2="SourceAlpha" operator="in" result="effect1_backgroundBlur_2259_2"/>
<feBlend mode="normal" in="SourceGraphic" in2="effect1_backgroundBlur_2259_2" result="shape"/>
<feColorMatrix in="SourceAlpha" type="matrix" values="0 0 0 0 0 0 0 0 0 0 0 0 0 0 0 0 0 0 127 0" result="hardAlpha"/>
<feOffset dy="0.403248"/>
<feGaussianBlur stdDeviation="0.806497"/>
<feComposite in2="hardAlpha" operator="arithmetic" k2="-1" k3="1"/>
<feColorMatrix type="matrix" values="0 0 0 0 1 0 0 0 0 1 0 0 0 0 1 0 0 0 0.4 0"/>
<feBlend mode="normal" in2="shape" result="effect2_innerShadow_2259_2"/>
</filter>
<filter id="filter1_bi_2259_2" x="21.0275" y="148.385" width="200.213" height="229.055" filterUnits="userSpaceOnUse" color-interpolation-filters="sRGB">
<feFlood flood-opacity="0" result="BackgroundImageFix"/>
<feGaussianBlur in="BackgroundImageFix" stdDeviation="1.20974"/>
<feComposite in2="SourceAlpha" operator="in" result="effect1_backgroundBlur_2259_2"/>
<feBlend mode="normal" in="SourceGraphic" in2="effect1_backgroundBlur_2259_2" result="shape"/>
<feColorMatrix in="SourceAlpha" type="matrix" values="0 0 0 0 0 0 0 0 0 0 0 0 0 0 0 0 0 0 127 0" result="hardAlpha"/>
<feOffset dy="0.403248"/>
<feGaussianBlur stdDeviation="0.806497"/>
<feComposite in2="hardAlpha" operator="arithmetic" k2="-1" k3="1"/>
<feColorMatrix type="matrix" values="0 0 0 0 1 0 0 0 0 1 0 0 0 0 1 0 0 0 0.4 0"/>
<feBlend mode="normal" in2="shape" result="effect2_innerShadow_2259_2"/>
</filter>
<filter id="filter2_bi_2259_2" x="316.952" y="244.863" width="12.0974" height="13.1691" filterUnits="userSpaceOnUse" color-interpolation-filters="sRGB">
<feFlood flood-opacity="0" result="BackgroundImageFix"/>
<feGaussianBlur in="BackgroundImageFix" stdDeviation="1.20974"/>
<feComposite in2="SourceAlpha" operator="in" result="effect1_backgroundBlur_2259_2"/>
<feBlend mode="normal" in="SourceGraphic" in2="effect1_backgroundBlur_2259_2" result="shape"/>
<feColorMatrix in="SourceAlpha" type="matrix" values="0 0 0 0 0 0 0 0 0 0 0 0 0 0 0 0 0 0 127 0" result="hardAlpha"/>
<feOffset dy="0.403248"/>
<feGaussianBlur stdDeviation="0.806497"/>
<feComposite in2="hardAlpha" operator="arithmetic" k2="-1" k3="1"/>
<feColorMatrix type="matrix" values="0 0 0 0 1 0 0 0 0 1 0 0 0 0 1 0 0 0 0.4 0"/>
<feBlend mode="normal" in2="shape" result="effect2_innerShadow_2259_2"/>
</filter>
<filter id="filter3_bi_2259_2" x="324.452" y="249.672" width="12.0974" height="13.1691" filterUnits="userSpaceOnUse" color-interpolation-filters="sRGB">
<feFlood flood-opacity="0" result="BackgroundImageFix"/>
<feGaussianBlur in="BackgroundImageFix" stdDeviation="1.20974"/>
<feComposite in2="SourceAlpha" operator="in" result="effect1_backgroundBlur_2259_2"/>
<feBlend mode="normal" in="SourceGraphic" in2="effect1_backgroundBlur_2259_2" result="shape"/>
<feColorMatrix in="SourceAlpha" type="matrix" values="0 0 0 0 0 0 0 0 0 0 0 0 0 0 0 0 0 0 127 0" result="hardAlpha"/>
<feOffset dy="0.403248"/>
<feGaussianBlur stdDeviation="0.806497"/>
<feComposite in2="hardAlpha" operator="arithmetic" k2="-1" k3="1"/>
<feColorMatrix type="matrix" values="0 0 0 0 1 0 0 0 0 1 0 0 0 0 1 0 0 0 0.4 0"/>
<feBlend mode="normal" in2="shape" result="effect2_innerShadow_2259_2"/>
</filter>
<filter id="filter4_bi_2259_2" x="316.951" y="255.188" width="12.0974" height="13.1691" filterUnits="userSpaceOnUse" color-interpolation-filters="sRGB">
<feFlood flood-opacity="0" result="BackgroundImageFix"/>
<feGaussianBlur in="BackgroundImageFix" stdDeviation="1.20974"/>
<feComposite in2="SourceAlpha" operator="in" result="effect1_backgroundBlur_2259_2"/>
<feBlend mode="normal" in="SourceGraphic" in2="effect1_backgroundBlur_2259_2" result="shape"/>
<feColorMatrix in="SourceAlpha" type="matrix" values="0 0 0 0 0 0 0 0 0 0 0 0 0 0 0 0 0 0 127 0" result="hardAlpha"/>
<feOffset dy="0.403248"/>
<feGaussianBlur stdDeviation="0.806497"/>
<feComposite in2="hardAlpha" operator="arithmetic" k2="-1" k3="1"/>
<feColorMatrix type="matrix" values="0 0 0 0 1 0 0 0 0 1 0 0 0 0 1 0 0 0 0.4 0"/>
<feBlend mode="normal" in2="shape" result="effect2_innerShadow_2259_2"/>
</filter>
<filter id="filter5_bi_2259_2" x="197.571" y="-5.69531" width="250.859" height="157.719" filterUnits="userSpaceOnUse" color-interpolation-filters="sRGB">
<feFlood flood-opacity="0" result="BackgroundImageFix"/>
<feGaussianBlur in="BackgroundImageFix" stdDeviation="3"/>
<feComposite in2="SourceAlpha" operator="in" result="effect1_backgroundBlur_2259_2"/>
<feBlend mode="normal" in="SourceGraphic" in2="effect1_backgroundBlur_2259_2" result="shape"/>
<feColorMatrix in="SourceAlpha" type="matrix" values="0 0 0 0 0 0 0 0 0 0 0 0 0 0 0 0 0 0 127 0" result="hardAlpha"/>
<feOffset dy="2"/>
<feGaussianBlur stdDeviation="1.5"/>
<feComposite in2="hardAlpha" operator="arithmetic" k2="-1" k3="1"/>
<feColorMatrix type="matrix" values="0 0 0 0 1 0 0 0 0 1 0 0 0 0 1 0 0 0 0.15 0"/>
<feBlend mode="normal" in2="shape" result="effect2_innerShadow_2259_2"/>
</filter>
<filter id="filter6_bi_2259_2" x="195.875" y="67.0376" width="133.125" height="217.253" filterUnits="userSpaceOnUse" color-interpolation-filters="sRGB">
<feFlood flood-opacity="0" result="BackgroundImageFix"/>
<feGaussianBlur in="BackgroundImageFix" stdDeviation="3"/>
<feComposite in2="SourceAlpha" operator="in" result="effect1_backgroundBlur_2259_2"/>
<feBlend mode="normal" in="SourceGraphic" in2="effect1_backgroundBlur_2259_2" result="shape"/>
<feColorMatrix in="SourceAlpha" type="matrix" values="0 0 0 0 0 0 0 0 0 0 0 0 0 0 0 0 0 0 127 0" result="hardAlpha"/>
<feOffset dy="2"/>
<feGaussianBlur stdDeviation="1.5"/>
<feComposite in2="hardAlpha" operator="arithmetic" k2="-1" k3="1"/>
<feColorMatrix type="matrix" values="0 0 0 0 1 0 0 0 0 1 0 0 0 0 1 0 0 0 0.15 0"/>
<feBlend mode="normal" in2="shape" result="effect2_innerShadow_2259_2"/>
</filter>
<filter id="filter7_bi_2259_2" x="317" y="67.0376" width="133.125" height="217.253" filterUnits="userSpaceOnUse" color-interpolation-filters="sRGB">
<feFlood flood-opacity="0" result="BackgroundImageFix"/>
<feGaussianBlur in="BackgroundImageFix" stdDeviation="3"/>
<feComposite in2="SourceAlpha" operator="in" result="effect1_backgroundBlur_2259_2"/>
<feBlend mode="normal" in="SourceGraphic" in2="effect1_backgroundBlur_2259_2" result="shape"/>
<feColorMatrix in="SourceAlpha" type="matrix" values="0 0 0 0 0 0 0 0 0 0 0 0 0 0 0 0 0 0 127 0" result="hardAlpha"/>
<feOffset dy="2"/>
<feGaussianBlur stdDeviation="1.5"/>
<feComposite in2="hardAlpha" operator="arithmetic" k2="-1" k3="1"/>
<feColorMatrix type="matrix" values="0 0 0 0 1 0 0 0 0 1 0 0 0 0 1 0 0 0 0.15 0"/>
<feBlend mode="normal" in2="shape" result="effect2_innerShadow_2259_2"/>
</filter>
<filter id="filter8_bi_2259_2" x="399.446" y="117.901" width="250.859" height="157.733" filterUnits="userSpaceOnUse" color-interpolation-filters="sRGB">
<feFlood flood-opacity="0" result="BackgroundImageFix"/>
<feGaussianBlur in="BackgroundImageFix" stdDeviation="3"/>
<feComposite in2="SourceAlpha" operator="in" result="effect1_backgroundBlur_2259_2"/>
<feBlend mode="normal" in="SourceGraphic" in2="effect1_backgroundBlur_2259_2" result="shape"/>
<feColorMatrix in="SourceAlpha" type="matrix" values="0 0 0 0 0 0 0 0 0 0 0 0 0 0 0 0 0 0 127 0" result="hardAlpha"/>
<feOffset dy="2"/>
<feGaussianBlur stdDeviation="1.5"/>
<feComposite in2="hardAlpha" operator="arithmetic" k2="-1" k3="1"/>
<feColorMatrix type="matrix" values="0 0 0 0 1 0 0 0 0 1 0 0 0 0 1 0 0 0 0.15 0"/>
<feBlend mode="normal" in2="shape" result="effect2_innerShadow_2259_2"/>
</filter>
<filter id="filter9_bi_2259_2" x="397.75" y="190.646" width="133.125" height="217.267" filterUnits="userSpaceOnUse" color-interpolation-filters="sRGB">
<feFlood flood-opacity="0" result="BackgroundImageFix"/>
<feGaussianBlur in="BackgroundImageFix" stdDeviation="3"/>
<feComposite in2="SourceAlpha" operator="in" result="effect1_backgroundBlur_2259_2"/>
<feBlend mode="normal" in="SourceGraphic" in2="effect1_backgroundBlur_2259_2" result="shape"/>
<feColorMatrix in="SourceAlpha" type="matrix" values="0 0 0 0 0 0 0 0 0 0 0 0 0 0 0 0 0 0 127 0" result="hardAlpha"/>
<feOffset dy="2"/>
<feGaussianBlur stdDeviation="1.5"/>
<feComposite in2="hardAlpha" operator="arithmetic" k2="-1" k3="1"/>
<feColorMatrix type="matrix" values="0 0 0 0 1 0 0 0 0 1 0 0 0 0 1 0 0 0 0.15 0"/>
<feBlend mode="normal" in2="shape" result="effect2_innerShadow_2259_2"/>
</filter>
<filter id="filter10_bi_2259_2" x="518.875" y="190.646" width="133.125" height="217.267" filterUnits="userSpaceOnUse" color-interpolation-filters="sRGB">
<feFlood flood-opacity="0" result="BackgroundImageFix"/>
<feGaussianBlur in="BackgroundImageFix" stdDeviation="3"/>
<feComposite in2="SourceAlpha" operator="in" result="effect1_backgroundBlur_2259_2"/>
<feBlend mode="normal" in="SourceGraphic" in2="effect1_backgroundBlur_2259_2" result="shape"/>
<feColorMatrix in="SourceAlpha" type="matrix" values="0 0 0 0 0 0 0 0 0 0 0 0 0 0 0 0 0 0 127 0" result="hardAlpha"/>
<feOffset dy="2"/>
<feGaussianBlur stdDeviation="1.5"/>
<feComposite in2="hardAlpha" operator="arithmetic" k2="-1" k3="1"/>
<feColorMatrix type="matrix" values="0 0 0 0 1 0 0 0 0 1 0 0 0 0 1 0 0 0 0.15 0"/>
<feBlend mode="normal" in2="shape" result="effect2_innerShadow_2259_2"/>
</filter>
<filter id="filter11_bi_2259_2" x="-4.3042" y="117.901" width="250.859" height="157.733" filterUnits="userSpaceOnUse" color-interpolation-filters="sRGB">
<feFlood flood-opacity="0" result="BackgroundImageFix"/>
<feGaussianBlur in="BackgroundImageFix" stdDeviation="3"/>
<feComposite in2="SourceAlpha" operator="in" result="effect1_backgroundBlur_2259_2"/>
<feBlend mode="normal" in="SourceGraphic" in2="effect1_backgroundBlur_2259_2" result="shape"/>
<feColorMatrix in="SourceAlpha" type="matrix" values="0 0 0 0 0 0 0 0 0 0 0 0 0 0 0 0 0 0 127 0" result="hardAlpha"/>
<feOffset dy="2"/>
<feGaussianBlur stdDeviation="1.5"/>
<feComposite in2="hardAlpha" operator="arithmetic" k2="-1" k3="1"/>
<feColorMatrix type="matrix" values="0 0 0 0 1 0 0 0 0 1 0 0 0 0 1 0 0 0 0.15 0"/>
<feBlend mode="normal" in2="shape" result="effect2_innerShadow_2259_2"/>
</filter>
<filter id="filter12_bi_2259_2" x="-6" y="190.646" width="133.125" height="217.267" filterUnits="userSpaceOnUse" color-interpolation-filters="sRGB">
<feFlood flood-opacity="0" result="BackgroundImageFix"/>
<feGaussianBlur in="BackgroundImageFix" stdDeviation="3"/>
<feComposite in2="SourceAlpha" operator="in" result="effect1_backgroundBlur_2259_2"/>
<feBlend mode="normal" in="SourceGraphic" in2="effect1_backgroundBlur_2259_2" result="shape"/>
<feColorMatrix in="SourceAlpha" type="matrix" values="0 0 0 0 0 0 0 0 0 0 0 0 0 0 0 0 0 0 127 0" result="hardAlpha"/>
<feOffset dy="2"/>
<feGaussianBlur stdDeviation="1.5"/>
<feComposite in2="hardAlpha" operator="arithmetic" k2="-1" k3="1"/>
<feColorMatrix type="matrix" values="0 0 0 0 1 0 0 0 0 1 0 0 0 0 1 0 0 0 0.15 0"/>
<feBlend mode="normal" in2="shape" result="effect2_innerShadow_2259_2"/>
</filter>
<filter id="filter13_bi_2259_2" x="115.125" y="190.646" width="133.125" height="217.267" filterUnits="userSpaceOnUse" color-interpolation-filters="sRGB">
<feFlood flood-opacity="0" result="BackgroundImageFix"/>
<feGaussianBlur in="BackgroundImageFix" stdDeviation="3"/>
<feComposite in2="SourceAlpha" operator="in" result="effect1_backgroundBlur_2259_2"/>
<feBlend mode="normal" in="SourceGraphic" in2="effect1_backgroundBlur_2259_2" result="shape"/>
<feColorMatrix in="SourceAlpha" type="matrix" values="0 0 0 0 0 0 0 0 0 0 0 0 0 0 0 0 0 0 127 0" result="hardAlpha"/>
<feOffset dy="2"/>
<feGaussianBlur stdDeviation="1.5"/>
<feComposite in2="hardAlpha" operator="arithmetic" k2="-1" k3="1"/>
<feColorMatrix type="matrix" values="0 0 0 0 1 0 0 0 0 1 0 0 0 0 1 0 0 0 0.15 0"/>
<feBlend mode="normal" in2="shape" result="effect2_innerShadow_2259_2"/>
</filter>
<filter id="filter14_bi_2259_2" x="197.571" y="252.326" width="250.859" height="157.719" filterUnits="userSpaceOnUse" color-interpolation-filters="sRGB">
<feFlood flood-opacity="0" result="BackgroundImageFix"/>
<feGaussianBlur in="BackgroundImageFix" stdDeviation="3"/>
<feComposite in2="SourceAlpha" operator="in" result="effect1_backgroundBlur_2259_2"/>
<feBlend mode="normal" in="SourceGraphic" in2="effect1_backgroundBlur_2259_2" result="shape"/>
<feColorMatrix in="SourceAlpha" type="matrix" values="0 0 0 0 0 0 0 0 0 0 0 0 0 0 0 0 0 0 127 0" result="hardAlpha"/>
<feOffset dy="2"/>
<feGaussianBlur stdDeviation="1.5"/>
<feComposite in2="hardAlpha" operator="arithmetic" k2="-1" k3="1"/>
<feColorMatrix type="matrix" values="0 0 0 0 1 0 0 0 0 1 0 0 0 0 1 0 0 0 0.15 0"/>
<feBlend mode="normal" in2="shape" result="effect2_innerShadow_2259_2"/>
</filter>
<filter id="filter15_bi_2259_2" x="195.875" y="325.059" width="133.125" height="217.253" filterUnits="userSpaceOnUse" color-interpolation-filters="sRGB">
<feFlood flood-opacity="0" result="BackgroundImageFix"/>
<feGaussianBlur in="BackgroundImageFix" stdDeviation="3"/>
<feComposite in2="SourceAlpha" operator="in" result="effect1_backgroundBlur_2259_2"/>
<feBlend mode="normal" in="SourceGraphic" in2="effect1_backgroundBlur_2259_2" result="shape"/>
<feColorMatrix in="SourceAlpha" type="matrix" values="0 0 0 0 0 0 0 0 0 0 0 0 0 0 0 0 0 0 127 0" result="hardAlpha"/>
<feOffset dy="2"/>
<feGaussianBlur stdDeviation="1.5"/>
<feComposite in2="hardAlpha" operator="arithmetic" k2="-1" k3="1"/>
<feColorMatrix type="matrix" values="0 0 0 0 1 0 0 0 0 1 0 0 0 0 1 0 0 0 0.15 0"/>
<feBlend mode="normal" in2="shape" result="effect2_innerShadow_2259_2"/>
</filter>
<filter id="filter16_bi_2259_2" x="317" y="325.059" width="133.125" height="217.253" filterUnits="userSpaceOnUse" color-interpolation-filters="sRGB">
<feFlood flood-opacity="0" result="BackgroundImageFix"/>
<feGaussianBlur in="BackgroundImageFix" stdDeviation="3"/>
<feComposite in2="SourceAlpha" operator="in" result="effect1_backgroundBlur_2259_2"/>
<feBlend mode="normal" in="SourceGraphic" in2="effect1_backgroundBlur_2259_2" result="shape"/>
<feColorMatrix in="SourceAlpha" type="matrix" values="0 0 0 0 0 0 0 0 0 0 0 0 0 0 0 0 0 0 127 0" result="hardAlpha"/>
<feOffset dy="2"/>
<feGaussianBlur stdDeviation="1.5"/>
<feComposite in2="hardAlpha" operator="arithmetic" k2="-1" k3="1"/>
<feColorMatrix type="matrix" values="0 0 0 0 1 0 0 0 0 1 0 0 0 0 1 0 0 0 0.15 0"/>
<feBlend mode="normal" in2="shape" result="effect2_innerShadow_2259_2"/>
</filter>
<linearGradient id="paint0_linear_2259_2" x1="31.5786" y1="195.647" x2="245.527" y2="221.54" gradientUnits="userSpaceOnUse">
<stop/>
<stop offset="1" stop-color="#433FD7"/>
</linearGradient>
<linearGradient id="paint1_linear_2259_2" x1="31.5786" y1="195.647" x2="245.527" y2="221.54" gradientUnits="userSpaceOnUse">
<stop/>
<stop offset="1" stop-color="#433FD7"/>
</linearGradient>
<linearGradient id="paint2_linear_2259_2" x1="31.5786" y1="195.647" x2="245.527" y2="221.54" gradientUnits="userSpaceOnUse">
<stop/>
<stop offset="1" stop-color="#433FD7"/>
</linearGradient>
<linearGradient id="paint3_linear_2259_2" x1="31.5876" y1="195.647" x2="245.536" y2="221.54" gradientUnits="userSpaceOnUse">
<stop/>
<stop offset="1" stop-color="#433FD7"/>
</linearGradient>
<linearGradient id="paint4_linear_2259_2" x1="31.5876" y1="195.647" x2="245.536" y2="221.54" gradientUnits="userSpaceOnUse">
<stop/>
<stop offset="1" stop-color="#433FD7"/>
</linearGradient>
<linearGradient id="paint5_linear_2259_2" x1="31.5876" y1="195.647" x2="245.536" y2="221.54" gradientUnits="userSpaceOnUse">
<stop/>
<stop offset="1" stop-color="#433FD7"/>
</linearGradient>
<linearGradient id="paint6_linear_2259_2" x1="319.674" y1="248.948" x2="327.622" y2="249.91" gradientUnits="userSpaceOnUse">
<stop/>
<stop offset="1" stop-color="#433FD7"/>
</linearGradient>
<linearGradient id="paint7_linear_2259_2" x1="319.674" y1="248.948" x2="327.622" y2="249.91" gradientUnits="userSpaceOnUse">
<stop/>
<stop offset="1" stop-color="#433FD7"/>
</linearGradient>
<linearGradient id="paint8_linear_2259_2" x1="319.674" y1="248.948" x2="327.622" y2="249.91" gradientUnits="userSpaceOnUse">
<stop/>
<stop offset="1" stop-color="#433FD7"/>
</linearGradient>
<linearGradient id="paint9_linear_2259_2" x1="327.174" y1="253.758" x2="335.122" y2="254.72" gradientUnits="userSpaceOnUse">
<stop/>
<stop offset="1" stop-color="#433FD7"/>
</linearGradient>
<linearGradient id="paint10_linear_2259_2" x1="327.174" y1="253.758" x2="335.122" y2="254.72" gradientUnits="userSpaceOnUse">
<stop/>
<stop offset="1" stop-color="#433FD7"/>
</linearGradient>
<linearGradient id="paint11_linear_2259_2" x1="327.174" y1="253.758" x2="335.122" y2="254.72" gradientUnits="userSpaceOnUse">
<stop/>
<stop offset="1" stop-color="#433FD7"/>
</linearGradient>
<linearGradient id="paint12_linear_2259_2" x1="319.673" y1="259.273" x2="327.622" y2="260.235" gradientUnits="userSpaceOnUse">
<stop/>
<stop offset="1" stop-color="#433FD7"/>
</linearGradient>
<linearGradient id="paint13_linear_2259_2" x1="319.673" y1="259.273" x2="327.622" y2="260.235" gradientUnits="userSpaceOnUse">
<stop/>
<stop offset="1" stop-color="#433FD7"/>
</linearGradient>
<linearGradient id="paint14_linear_2259_2" x1="319.673" y1="259.273" x2="327.622" y2="260.235" gradientUnits="userSpaceOnUse">
<stop/>
<stop offset="1" stop-color="#433FD7"/>
</linearGradient>
<linearGradient id="paint15_linear_2259_2" x1="213.523" y1="29.4486" x2="465.844" y2="86.8924" gradientUnits="userSpaceOnUse">
<stop stop-color="#717171"/>
<stop offset="1"/>
</linearGradient>
<linearGradient id="paint16_linear_2259_2" x1="211.035" y1="6.9283" x2="442.429" y2="6.9283" gradientUnits="userSpaceOnUse">
<stop/>
<stop offset="1"/>
</linearGradient>
<linearGradient id="paint17_linear_2259_2" x1="206.922" y1="114.088" x2="340.607" y2="125.045" gradientUnits="userSpaceOnUse">
<stop stop-color="#717171"/>
<stop offset="1"/>
</linearGradient>
<linearGradient id="paint18_linear_2259_2" x1="205.66" y1="82.3673" x2="323" y2="82.3673" gradientUnits="userSpaceOnUse">
<stop/>
<stop offset="1"/>
</linearGradient>
<linearGradient id="paint19_linear_2259_2" x1="328.047" y1="114.088" x2="461.732" y2="125.045" gradientUnits="userSpaceOnUse">
<stop stop-color="#717171"/>
<stop offset="1"/>
</linearGradient>
<linearGradient id="paint20_linear_2259_2" x1="326.785" y1="82.3673" x2="444.125" y2="82.3673" gradientUnits="userSpaceOnUse">
<stop/>
<stop offset="1"/>
</linearGradient>
<linearGradient id="paint21_linear_2259_2" x1="415.398" y1="153.047" x2="667.721" y2="210.486" gradientUnits="userSpaceOnUse">
<stop stop-color="#717171"/>
<stop offset="1"/>
</linearGradient>
<linearGradient id="paint22_linear_2259_2" x1="412.91" y1="130.525" x2="644.304" y2="130.525" gradientUnits="userSpaceOnUse">
<stop/>
<stop offset="1"/>
</linearGradient>
<linearGradient id="paint23_linear_2259_2" x1="408.797" y1="237.7" x2="542.482" y2="248.656" gradientUnits="userSpaceOnUse">
<stop stop-color="#717171"/>
<stop offset="1"/>
</linearGradient>
<linearGradient id="paint24_linear_2259_2" x1="407.535" y1="205.977" x2="524.875" y2="205.977" gradientUnits="userSpaceOnUse">
<stop/>
<stop offset="1"/>
</linearGradient>
<linearGradient id="paint25_linear_2259_2" x1="529.922" y1="237.7" x2="663.607" y2="248.656" gradientUnits="userSpaceOnUse">
<stop stop-color="#717171"/>
<stop offset="1"/>
</linearGradient>
<linearGradient id="paint26_linear_2259_2" x1="528.66" y1="205.977" x2="646" y2="205.977" gradientUnits="userSpaceOnUse">
<stop/>
<stop offset="1"/>
</linearGradient>
<linearGradient id="paint27_linear_2259_2" x1="11.6482" y1="153.047" x2="263.971" y2="210.486" gradientUnits="userSpaceOnUse">
<stop stop-color="#717171"/>
<stop offset="1"/>
</linearGradient>
<linearGradient id="paint28_linear_2259_2" x1="9.16013" y1="130.525" x2="240.554" y2="130.525" gradientUnits="userSpaceOnUse">
<stop/>
<stop offset="1"/>
</linearGradient>
<linearGradient id="paint29_linear_2259_2" x1="5.04687" y1="237.7" x2="138.732" y2="248.656" gradientUnits="userSpaceOnUse">
<stop stop-color="#717171"/>
<stop offset="1"/>
</linearGradient>
<linearGradient id="paint30_linear_2259_2" x1="3.78516" y1="205.977" x2="121.125" y2="205.977" gradientUnits="userSpaceOnUse">
<stop/>
<stop offset="1"/>
</linearGradient>
<linearGradient id="paint31_linear_2259_2" x1="126.172" y1="237.7" x2="259.857" y2="248.656" gradientUnits="userSpaceOnUse">
<stop stop-color="#717171"/>
<stop offset="1"/>
</linearGradient>
<linearGradient id="paint32_linear_2259_2" x1="124.91" y1="205.977" x2="242.25" y2="205.977" gradientUnits="userSpaceOnUse">
<stop/>
<stop offset="1"/>
</linearGradient>
<linearGradient id="paint33_linear_2259_2" x1="213.523" y1="287.47" x2="465.844" y2="344.914" gradientUnits="userSpaceOnUse">
<stop stop-color="#717171"/>
<stop offset="1"/>
</linearGradient>
<linearGradient id="paint34_linear_2259_2" x1="211.035" y1="264.95" x2="442.429" y2="264.95" gradientUnits="userSpaceOnUse">
<stop/>
<stop offset="1"/>
</linearGradient>
<linearGradient id="paint35_linear_2259_2" x1="206.922" y1="372.11" x2="340.607" y2="383.067" gradientUnits="userSpaceOnUse">
<stop stop-color="#717171"/>
<stop offset="1"/>
</linearGradient>
<linearGradient id="paint36_linear_2259_2" x1="205.66" y1="340.389" x2="323" y2="340.389" gradientUnits="userSpaceOnUse">
<stop/>
<stop offset="1"/>
</linearGradient>
<linearGradient id="paint37_linear_2259_2" x1="328.047" y1="372.11" x2="461.732" y2="383.067" gradientUnits="userSpaceOnUse">
<stop stop-color="#717171"/>
<stop offset="1"/>
</linearGradient>
<linearGradient id="paint38_linear_2259_2" x1="326.785" y1="340.389" x2="444.125" y2="340.389" gradientUnits="userSpaceOnUse">
<stop/>
<stop offset="1"/>
</linearGradient>
</defs>
</svg>
