<svg width="98" height="664" viewBox="0 0 98 664" fill="none" xmlns="http://www.w3.org/2000/svg">
<path d="M43 301.5C43 300.672 43.6716 300 44.5 300C45.3284 300 46 300.672 46 301.5V662.5C46 663.328 45.3284 664 44.5 664C43.6716 664 43 663.328 43 662.5V301.5Z" fill="url(#paint0_linear_2014_266)"/>
<g filter="url(#filter0_f_2014_266)">
<path d="M32.3281 267.516C32.3281 260.888 37.7007 255.516 44.3281 255.516C50.9555 255.516 56.3281 260.888 56.3281 267.516V271.516C56.3281 278.143 50.9555 283.516 44.3281 283.516C37.7007 283.516 32.3281 278.143 32.3281 271.516V267.516Z" fill="#2B5AE8"/>
</g>
<path d="M47.5482 260.486C47.6888 260.345 47.8794 260.266 48.0782 260.266C48.2769 260.266 48.4676 260.345 48.6082 260.486L55.1082 266.986C55.2486 267.126 55.3275 267.317 55.3275 267.516C55.3275 267.714 55.2486 267.905 55.1082 268.046L48.6082 274.546C48.5165 274.644 48.3999 274.717 48.2707 274.755C48.1414 274.793 48.0043 274.795 47.8738 274.762C47.7433 274.728 47.6242 274.66 47.529 274.565C47.4339 274.47 47.3662 274.35 47.3332 274.22C47.2998 274.089 47.3021 273.952 47.3399 273.823C47.3778 273.694 47.4497 273.577 47.5482 273.486L53.5182 267.516L47.5482 261.546C47.4077 261.405 47.3289 261.214 47.3289 261.016C47.3289 260.817 47.4077 260.626 47.5482 260.486ZM41.1082 260.486C41.2486 260.626 41.3275 260.817 41.3275 261.016C41.3275 261.214 41.2486 261.405 41.1082 261.546L35.1382 267.516L41.1082 273.486C41.2069 273.577 41.2791 273.694 41.3171 273.823C41.3551 273.952 41.3576 274.09 41.3242 274.22C41.2908 274.351 41.2229 274.47 41.1275 274.565C41.0321 274.66 40.9128 274.728 40.7822 274.761C40.6518 274.794 40.5148 274.792 40.3857 274.754C40.2565 274.716 40.1399 274.644 40.0482 274.546L33.5482 268.046C33.4077 267.905 33.3289 267.714 33.3289 267.516C33.3289 267.317 33.4077 267.126 33.5482 266.986L40.0482 260.486C40.1888 260.345 40.3794 260.266 40.5782 260.266C40.7769 260.266 40.9676 260.345 41.1082 260.486Z" fill="#E6EDF3"/>
<path d="M42.8281 22.5C42.8281 21.6716 43.4997 21 44.3281 21C45.1566 21 45.8281 21.6716 45.8281 22.5V238.02C45.8281 238.848 45.1566 239.52 44.3281 239.52C43.4997 239.52 42.8281 238.848 42.8281 238.02V22.5Z" fill="url(#paint1_linear_2014_266)"/>
<path d="M39.3281 9C39.3281 6.23858 41.5667 4 44.3281 4C47.0895 4 49.3281 6.23858 49.3281 9C49.3281 11.7614 47.0895 14 44.3281 14C41.5667 14 39.3281 11.7614 39.3281 9Z" stroke="white" stroke-opacity="0.3" stroke-width="2"/>
<defs>
<filter id="filter0_f_2014_266" x="14.3281" y="237.516" width="60" height="64" filterUnits="userSpaceOnUse" color-interpolation-filters="sRGB">
<feFlood flood-opacity="0" result="BackgroundImageFix"/>
<feBlend mode="normal" in="SourceGraphic" in2="BackgroundImageFix" result="shape"/>
<feGaussianBlur stdDeviation="9" result="effect1_foregroundBlur_2014_266"/>
</filter>
<linearGradient id="paint0_linear_2014_266" x1="44.5" y1="300" x2="44.5" y2="664" gradientUnits="userSpaceOnUse">
<stop stop-color="#2B5AE8"/>
<stop offset="0.8" stop-color="#2DA44E"/>
<stop offset="1" stop-color="#3FB950"/>
</linearGradient>
<linearGradient id="paint1_linear_2014_266" x1="44.3281" y1="21" x2="44.3281" y2="239.52" gradientUnits="userSpaceOnUse">
<stop stop-opacity="0"/>
<stop offset="0.3" stop-color="#2B5AE8"/>
</linearGradient>
</defs>
</svg>
