<svg width="177" height="60" viewBox="0 0 177 60" fill="none" xmlns="http://www.w3.org/2000/svg">
<rect x="0.81" y="0.81" width="175.38" height="58.38" rx="29.19" fill="url(#paint0_linear_2001_3031)"/>
<rect x="0.81" y="0.81" width="175.38" height="58.38" rx="29.19" fill="black" fill-opacity="0.7"/>
<rect x="0.81" y="0.81" width="175.38" height="58.38" rx="29.19" stroke="url(#paint1_linear_2001_3031)" stroke-width="1.62"/>
<g filter="url(#filter0_i_2001_3031)">
<path d="M45.8635 20.2309C46.3412 19.4178 46.0556 18.3793 45.2255 17.9113C44.3954 17.4433 43.3352 17.7231 42.8575 18.5362L42.0242 19.9544L41.1909 18.5362C40.7131 17.7231 39.6529 17.4433 38.8228 17.9113C37.9927 18.3793 37.7071 19.4178 38.1849 20.2309L40.0233 23.3597L34.2084 33.2562H29.5237C28.566 33.2562 27.7896 34.0167 27.7896 34.9549C27.7896 35.893 28.566 36.6536 29.5237 36.6536H45.8408C45.9838 36.2853 46.1344 35.6535 45.9742 35.0728C45.7334 34.1999 44.8422 33.2562 43.3489 33.2562H38.2101L45.8635 20.2309Z" fill="url(#paint2_linear_2001_3031)"/>
<path d="M45.8635 20.2309C46.3412 19.4178 46.0556 18.3793 45.2255 17.9113C44.3954 17.4433 43.3352 17.7231 42.8575 18.5362L42.0242 19.9544L41.1909 18.5362C40.7131 17.7231 39.6529 17.4433 38.8228 17.9113C37.9927 18.3793 37.7071 19.4178 38.1849 20.2309L40.0233 23.3597L34.2084 33.2562H29.5237C28.566 33.2562 27.7896 34.0167 27.7896 34.9549C27.7896 35.893 28.566 36.6536 29.5237 36.6536H45.8408C45.9838 36.2853 46.1344 35.6535 45.9742 35.0728C45.7334 34.1999 44.8422 33.2562 43.3489 33.2562H38.2101L45.8635 20.2309Z" fill="black" fill-opacity="0.6"/>
<path d="M35.1102 38.532C34.8143 38.2101 34.1514 37.6958 33.5701 37.5265C32.6838 37.2684 32.0119 37.4303 31.6729 37.5714L30.3811 39.7698C29.9033 40.5829 30.189 41.6214 31.019 42.0894C31.8491 42.5574 32.9093 42.2776 33.3871 41.4645L35.1102 38.532Z" fill="url(#paint3_linear_2001_3031)"/>
<path d="M35.1102 38.532C34.8143 38.2101 34.1514 37.6958 33.5701 37.5265C32.6838 37.2684 32.0119 37.4303 31.6729 37.5714L30.3811 39.7698C29.9033 40.5829 30.189 41.6214 31.019 42.0894C31.8491 42.5574 32.9093 42.2776 33.3871 41.4645L35.1102 38.532Z" fill="black" fill-opacity="0.6"/>
<path d="M51.8362 36.6536H54.4764C55.4342 36.6536 56.2106 35.893 56.2106 34.9549C56.2106 34.0167 55.4342 33.2562 54.4764 33.2562H49.84L44.6172 24.3675C44.2292 24.7287 43.4854 25.6513 43.3729 26.6973C43.2284 28.0421 43.4452 29.1746 44.0955 30.2835C46.2819 34.0116 48.4717 37.7381 50.6612 41.4645C51.139 42.2776 52.1992 42.5574 53.0293 42.0894C53.8594 41.6214 54.145 40.5829 53.6672 39.7698L51.8362 36.6536Z" fill="url(#paint4_linear_2001_3031)"/>
<path d="M51.8362 36.6536H54.4764C55.4342 36.6536 56.2106 35.893 56.2106 34.9549C56.2106 34.0167 55.4342 33.2562 54.4764 33.2562H49.84L44.6172 24.3675C44.2292 24.7287 43.4854 25.6513 43.3729 26.6973C43.2284 28.0421 43.4452 29.1746 44.0955 30.2835C46.2819 34.0116 48.4717 37.7381 50.6612 41.4645C51.139 42.2776 52.1992 42.5574 53.0293 42.0894C53.8594 41.6214 54.145 40.5829 53.6672 39.7698L51.8362 36.6536Z" fill="black" fill-opacity="0.6"/>
</g>
<path d="M41.0758 20.5117L42.0242 22.1257L42.9726 20.5117L43.8059 19.0934C43.9744 18.8065 44.3686 18.6909 44.6853 18.8695C44.9891 19.0408 45.0756 19.4005 44.9151 19.6737L37.2617 32.6989L36.288 34.3562H38.2101H43.3489C44.3205 34.3562 44.7973 34.9431 44.9138 35.3654C44.9288 35.4195 44.9384 35.4826 44.9418 35.5536H29.5237C29.1519 35.5536 28.8896 35.2642 28.8896 34.9549C28.8896 34.6455 29.1519 34.3562 29.5237 34.3562H34.2084H34.8379L35.1568 33.8134L40.9717 23.917L41.2991 23.3597L40.9717 22.8025L39.1333 19.6737C38.9727 19.4005 39.0592 19.0408 39.363 18.8695C39.6797 18.6909 40.0739 18.8065 40.2424 19.0934L41.0758 20.5117ZM33.2625 38.5826C33.3678 38.6133 33.5156 38.6824 33.6845 38.7871L32.4387 40.9073C32.2701 41.1942 31.876 41.3098 31.5593 41.1312C31.2554 40.9599 31.169 40.6002 31.3295 40.3271L30.3811 39.7698L31.3295 40.3271L32.3986 38.5076C32.607 38.4773 32.9 38.4771 33.2625 38.5826ZM44.4667 26.8149C44.4801 26.6901 44.5099 26.5611 44.5536 26.4306L48.8916 33.8134L49.2105 34.3562H49.84H54.4764C54.8482 34.3562 55.1106 34.6455 55.1106 34.9549C55.1106 35.2642 54.8482 35.5536 54.4764 35.5536H51.8362H49.914L50.8878 37.2108L52.7188 40.3271C52.8793 40.6002 52.7929 40.9599 52.4891 41.1312C52.1723 41.3098 51.7782 41.1942 51.6096 40.9073L51.3587 40.4802C49.2527 36.8961 47.147 33.3123 45.0444 29.727L44.0955 30.2835L45.0444 29.727C44.5249 28.8412 44.3448 27.9491 44.4667 26.8149L43.3729 26.6973L44.4667 26.8149Z" stroke="url(#paint5_linear_2001_3031)" stroke-width="2.2"/>
<path d="M77.824 33.52H72.96L72.064 36H70.528L74.56 24.912H76.24L80.256 36H78.72L77.824 33.52ZM77.408 32.336L75.392 26.704L73.376 32.336H77.408ZM89.4693 28.112C89.4693 29.04 89.1493 29.8133 88.5093 30.432C87.8799 31.04 86.9146 31.344 85.6133 31.344H83.4693V36H82.0133V24.848H85.6133C86.8719 24.848 87.8266 25.152 88.4773 25.76C89.1386 26.368 89.4693 27.152 89.4693 28.112ZM85.6133 30.144C86.4239 30.144 87.0213 29.968 87.4053 29.616C87.7893 29.264 87.9813 28.7627 87.9813 28.112C87.9813 26.736 87.1919 26.048 85.6133 26.048H83.4693V30.144H85.6133ZM98.7349 28.112C98.7349 29.04 98.4149 29.8133 97.7749 30.432C97.1455 31.04 96.1802 31.344 94.8789 31.344H92.7349V36H91.2789V24.848H94.8789C96.1375 24.848 97.0922 25.152 97.7429 25.76C98.4042 26.368 98.7349 27.152 98.7349 28.112ZM94.8789 30.144C95.6895 30.144 96.2869 29.968 96.6709 29.616C97.0549 29.264 97.2469 28.7627 97.2469 28.112C97.2469 26.736 96.4575 26.048 94.8789 26.048H92.7349V30.144H94.8789ZM108.346 36.112C107.61 36.112 106.949 35.984 106.362 35.728C105.786 35.4613 105.333 35.0987 105.002 34.64C104.671 34.1707 104.501 33.632 104.49 33.024H106.042C106.095 33.5467 106.309 33.9893 106.682 34.352C107.066 34.704 107.621 34.88 108.346 34.88C109.039 34.88 109.583 34.7093 109.978 34.368C110.383 34.016 110.586 33.568 110.586 33.024C110.586 32.5973 110.469 32.2507 110.234 31.984C109.999 31.7173 109.706 31.5147 109.354 31.376C109.002 31.2373 108.527 31.088 107.93 30.928C107.194 30.736 106.602 30.544 106.154 30.352C105.717 30.16 105.338 29.8613 105.018 29.456C104.709 29.04 104.554 28.4853 104.554 27.792C104.554 27.184 104.709 26.6453 105.018 26.176C105.327 25.7067 105.759 25.344 106.314 25.088C106.879 24.832 107.525 24.704 108.25 24.704C109.295 24.704 110.149 24.9653 110.81 25.488C111.482 26.0107 111.861 26.704 111.946 27.568H110.346C110.293 27.1413 110.069 26.768 109.674 26.448C109.279 26.1173 108.757 25.952 108.106 25.952C107.498 25.952 107.002 26.112 106.618 26.432C106.234 26.7413 106.042 27.1787 106.042 27.744C106.042 28.1493 106.154 28.48 106.378 28.736C106.613 28.992 106.895 29.1893 107.226 29.328C107.567 29.456 108.042 29.6053 108.65 29.776C109.386 29.9787 109.978 30.1813 110.426 30.384C110.874 30.576 111.258 30.88 111.578 31.296C111.898 31.7013 112.058 32.256 112.058 32.96C112.058 33.504 111.914 34.016 111.626 34.496C111.338 34.976 110.911 35.3653 110.346 35.664C109.781 35.9627 109.114 36.112 108.346 36.112ZM121.065 24.848V26.032H118.025V36H116.569V26.032H113.513V24.848H121.065ZM127.913 36.112C126.878 36.112 125.934 35.872 125.081 35.392C124.228 34.9013 123.55 34.224 123.049 33.36C122.558 32.4853 122.313 31.504 122.313 30.416C122.313 29.328 122.558 28.352 123.049 27.488C123.55 26.6133 124.228 25.936 125.081 25.456C125.934 24.9653 126.878 24.72 127.913 24.72C128.958 24.72 129.908 24.9653 130.761 25.456C131.614 25.936 132.286 26.608 132.777 27.472C133.268 28.336 133.513 29.3173 133.513 30.416C133.513 31.5147 133.268 32.496 132.777 33.36C132.286 34.224 131.614 34.9013 130.761 35.392C129.908 35.872 128.958 36.112 127.913 36.112ZM127.913 34.848C128.692 34.848 129.39 34.6667 130.009 34.304C130.638 33.9413 131.129 33.424 131.481 32.752C131.844 32.08 132.025 31.3013 132.025 30.416C132.025 29.52 131.844 28.7413 131.481 28.08C131.129 27.408 130.644 26.8907 130.025 26.528C129.406 26.1653 128.702 25.984 127.913 25.984C127.124 25.984 126.42 26.1653 125.801 26.528C125.182 26.8907 124.692 27.408 124.329 28.08C123.977 28.7413 123.801 29.52 123.801 30.416C123.801 31.3013 123.977 32.08 124.329 32.752C124.692 33.424 125.182 33.9413 125.801 34.304C126.43 34.6667 127.134 34.848 127.913 34.848ZM141.307 36L138.651 31.44H136.891V36H135.435V24.848H139.035C139.878 24.848 140.587 24.992 141.163 25.28C141.75 25.568 142.187 25.9573 142.475 26.448C142.763 26.9387 142.907 27.4987 142.907 28.128C142.907 28.896 142.683 29.5733 142.235 30.16C141.798 30.7467 141.136 31.136 140.251 31.328L143.051 36H141.307ZM136.891 30.272H139.035C139.824 30.272 140.416 30.08 140.811 29.696C141.206 29.3013 141.403 28.7787 141.403 28.128C141.403 27.4667 141.206 26.9547 140.811 26.592C140.427 26.2293 139.835 26.048 139.035 26.048H136.891V30.272ZM146.626 26.032V29.76H150.69V30.96H146.626V34.8H151.17V36H145.17V24.832H151.17V26.032H146.626Z" fill="url(#paint6_linear_2001_3031)"/>
<defs>
<filter id="filter0_i_2001_3031" x="25.6062" y="16.3346" width="30.6045" height="25.9818" filterUnits="userSpaceOnUse" color-interpolation-filters="sRGB">
<feFlood flood-opacity="0" result="BackgroundImageFix"/>
<feBlend mode="normal" in="SourceGraphic" in2="BackgroundImageFix" result="shape"/>
<feColorMatrix in="SourceAlpha" type="matrix" values="0 0 0 0 0 0 0 0 0 0 0 0 0 0 0 0 0 0 127 0" result="hardAlpha"/>
<feOffset dx="-2.18333" dy="-1.35"/>
<feGaussianBlur stdDeviation="1.93333"/>
<feComposite in2="hardAlpha" operator="arithmetic" k2="-1" k3="1"/>
<feColorMatrix type="matrix" values="0 0 0 0 0.980392 0 0 0 0 0.980392 0 0 0 0 0.980392 0 0 0 0.22 0"/>
<feBlend mode="normal" in2="shape" result="effect1_innerShadow_2001_3031"/>
</filter>
<linearGradient id="paint0_linear_2001_3031" x1="177" y1="0" x2="166.553" y2="81.3808" gradientUnits="userSpaceOnUse">
<stop stop-color="#D6D3C2" stop-opacity="0.2"/>
<stop offset="1" stop-color="#5C5C5C" stop-opacity="0.14"/>
</linearGradient>
<linearGradient id="paint1_linear_2001_3031" x1="177" y1="0" x2="166.553" y2="81.3808" gradientUnits="userSpaceOnUse">
<stop stop-color="#999999"/>
<stop offset="1" stop-color="#141414"/>
</linearGradient>
<linearGradient id="paint2_linear_2001_3031" x1="56.2106" y1="17.6846" x2="46.1488" y2="48.3417" gradientUnits="userSpaceOnUse">
<stop stop-color="#D6D3C2" stop-opacity="0.2"/>
<stop offset="1" stop-color="#5C5C5C" stop-opacity="0.14"/>
</linearGradient>
<linearGradient id="paint3_linear_2001_3031" x1="56.2106" y1="17.6846" x2="46.1488" y2="48.3417" gradientUnits="userSpaceOnUse">
<stop stop-color="#D6D3C2" stop-opacity="0.2"/>
<stop offset="1" stop-color="#5C5C5C" stop-opacity="0.14"/>
</linearGradient>
<linearGradient id="paint4_linear_2001_3031" x1="56.2106" y1="17.6846" x2="46.1488" y2="48.3417" gradientUnits="userSpaceOnUse">
<stop stop-color="#D6D3C2" stop-opacity="0.2"/>
<stop offset="1" stop-color="#5C5C5C" stop-opacity="0.14"/>
</linearGradient>
<linearGradient id="paint5_linear_2001_3031" x1="56.2106" y1="17.6846" x2="46.1488" y2="48.3417" gradientUnits="userSpaceOnUse">
<stop stop-color="#999999"/>
<stop offset="1" stop-color="#141414"/>
</linearGradient>
<linearGradient id="paint6_linear_2001_3031" x1="70" y1="42" x2="101.597" y2="-12.0498" gradientUnits="userSpaceOnUse">
<stop stop-color="#ADA785"/>
<stop offset="1" stop-color="#D6D3C2"/>
</linearGradient>
</defs>
</svg>
