<svg width="64" height="64" viewBox="0 0 64 64" fill="none" xmlns="http://www.w3.org/2000/svg">
<g id="Chart">
<g id="Chart_2" filter="url(#filter0_i_2038_414)">
<path id="Chart_3" fill-rule="evenodd" clip-rule="evenodd" d="M58.6667 28.2005C58.6667 29.3274 57.7532 30.241 56.6263 30.241H56.6028C56.0596 30.2411 55.5394 30.0222 55.1597 29.6337C54.7801 29.2453 54.5732 28.7201 54.5858 28.1771V22.0088C54.5858 13.8939 50.1062 9.41424 41.9912 9.41424H22.0088C13.8705 9.41424 9.41429 13.8939 9.41429 22.0088V42.0147C9.41429 50.1296 13.8939 54.5858 22.0088 54.5858H41.9912C50.1296 54.5858 54.5858 50.1061 54.5858 42.0147C54.5858 40.8877 55.4993 39.9742 56.6263 39.9742C57.7532 39.9742 58.6667 40.8877 58.6667 42.0147C58.6667 52.2873 52.2873 58.6667 42.0147 58.6667H22.0088C11.7127 58.6667 5.33337 52.2873 5.33337 42.0147V22.0088C5.33337 11.7127 11.7127 5.33333 22.0088 5.33333H41.9912C52.2404 5.33333 58.6667 11.7127 58.6667 22.0088V28.2005ZM18.5612 44.5008V27.5908V27.4267C18.5794 26.8874 18.8129 26.3779 19.2096 26.0121C19.6063 25.6462 20.133 25.4546 20.672 25.48C21.2133 25.4984 21.725 25.7311 22.0946 26.1271C22.4641 26.523 22.6611 27.0496 22.6421 27.5908V44.6416C22.6032 45.7685 21.6582 46.6505 20.5313 46.6117C19.4044 46.5728 18.5223 45.6278 18.5612 44.5008ZM30.0534 19.5224V44.5239C30.0534 45.6508 30.967 46.5643 32.0939 46.5643C33.2208 46.5643 34.1343 45.6508 34.1343 44.5239V19.5224C34.1343 18.3955 33.2208 17.482 32.0939 17.482C30.967 17.482 30.0534 18.3955 30.0534 19.5224ZM41.3581 44.5005V36.5263C41.3581 35.3994 42.2716 34.4858 43.3985 34.4858C44.5254 34.4858 45.439 35.3994 45.439 36.5263V44.5005C45.439 45.6274 44.5254 46.5409 43.3985 46.5409C42.2716 46.5409 41.3581 45.6274 41.3581 44.5005Z" fill="url(#paint0_linear_2038_414)"/>
</g>
</g>
<defs>
<filter id="filter0_i_2038_414" x="5.33337" y="5.33333" width="53.3334" height="53.3333" filterUnits="userSpaceOnUse" color-interpolation-filters="sRGB">
<feFlood flood-opacity="0" result="BackgroundImageFix"/>
<feBlend mode="normal" in="SourceGraphic" in2="BackgroundImageFix" result="shape"/>
<feColorMatrix in="SourceAlpha" type="matrix" values="0 0 0 0 0 0 0 0 0 0 0 0 0 0 0 0 0 0 127 0" result="hardAlpha"/>
<feOffset dx="-1.62" dy="1.62"/>
<feComposite in2="hardAlpha" operator="arithmetic" k2="-1" k3="1"/>
<feColorMatrix type="matrix" values="0 0 0 0 0.68 0 0 0 0 0.656 0 0 0 0 0.52 0 0 0 1 0"/>
<feBlend mode="normal" in2="shape" result="effect1_innerShadow_2038_414"/>
</filter>
<linearGradient id="paint0_linear_2038_414" x1="5.33337" y1="58.6667" x2="69.3779" y2="26.9885" gradientUnits="userSpaceOnUse">
<stop stop-color="#ADA785"/>
<stop offset="1" stop-color="#D6D3C2"/>
</linearGradient>
</defs>
</svg>
