<svg width="64" height="64" viewBox="0 0 64 64" fill="none" xmlns="http://www.w3.org/2000/svg">
<g id="Activity">
<g id="Activity_2" filter="url(#filter0_i_2038_374)">
<path id="Activity_3" fill-rule="evenodd" clip-rule="evenodd" d="M51.7375 19.1606C54.5421 19.1606 57.07 17.4736 58.1411 14.8873C59.2122 12.301 58.615 9.32554 56.6285 7.35014C54.642 5.37474 51.6579 4.78906 49.0695 5.86656C46.4812 6.94406 44.7991 9.47221 44.8086 12.2706C44.8216 16.0797 47.92 19.1607 51.7375 19.1606ZM51.7373 9.28396C53.3903 9.28396 54.7304 10.621 54.7304 12.2704C54.7304 13.9198 53.3903 15.2569 51.7373 15.2569C50.0843 15.2569 48.7442 13.9198 48.7442 12.2704C48.7442 10.621 50.0843 9.28396 51.7373 9.28396ZM9.26902 42.6523C9.26902 50.4594 13.5819 54.7392 21.3827 54.7392C22.4707 54.7519 23.3496 55.6289 23.3624 56.7145C23.3495 57.7963 22.4669 58.6664 21.3827 58.6663C11.4844 58.6663 5.33325 52.5288 5.33325 42.6523V23.4401C5.33325 13.5401 11.4844 7.40255 21.3827 7.40255H38.7283C39.8125 7.41542 40.6845 8.29604 40.6844 9.37785C40.6845 9.89959 40.4752 10.3996 40.1032 10.7663C39.7313 11.1331 39.2276 11.3359 38.7048 11.3296H21.3827C13.5819 11.3296 9.26902 15.633 9.26902 23.4401V42.6523ZM36.9843 37.5264C36.6541 37.9331 36.1832 38.2016 35.6645 38.2789C35.1482 38.3313 34.632 38.1793 34.2269 37.8556L26.9917 32.1884L20.487 40.6305C20.1769 41.0515 19.7105 41.3309 19.1922 41.406C18.6739 41.4812 18.1471 41.3458 17.7297 41.0302C16.8777 40.3638 16.7203 39.1382 17.3761 38.2789L25.0827 28.2613C25.4042 27.846 25.8781 27.5754 26.3998 27.5092C26.9216 27.443 27.4483 27.5867 27.8637 27.9086L35.0989 33.5758L41.4621 25.463C42.1606 24.8003 43.2387 24.7441 44.0026 25.3304C44.7665 25.9168 44.9886 26.9709 44.5259 27.8145L36.9843 37.5264ZM54.8249 23.4402C53.7446 23.4402 52.8688 24.3141 52.8688 25.392V42.6524C52.7981 50.4595 48.4853 54.7393 40.6844 54.7393H32.8129C31.7249 54.752 30.846 55.629 30.8333 56.7146C30.8462 57.7964 31.7287 58.6665 32.8129 58.6664H40.6844C50.5828 58.6664 56.7575 52.5289 56.7575 42.6524V25.392C56.7575 24.3232 55.896 23.4531 54.8249 23.4402Z" fill="url(#paint0_linear_2038_374)"/>
</g>
</g>
<defs>
<filter id="filter0_i_2038_374" x="5.33325" y="5.33333" width="53.3333" height="53.3331" filterUnits="userSpaceOnUse" color-interpolation-filters="sRGB">
<feFlood flood-opacity="0" result="BackgroundImageFix"/>
<feBlend mode="normal" in="SourceGraphic" in2="BackgroundImageFix" result="shape"/>
<feColorMatrix in="SourceAlpha" type="matrix" values="0 0 0 0 0 0 0 0 0 0 0 0 0 0 0 0 0 0 127 0" result="hardAlpha"/>
<feOffset dx="-1.62" dy="1.62"/>
<feComposite in2="hardAlpha" operator="arithmetic" k2="-1" k3="1"/>
<feColorMatrix type="matrix" values="0 0 0 0 0.68 0 0 0 0 0.656 0 0 0 0 0.52 0 0 0 1 0"/>
<feBlend mode="normal" in2="shape" result="effect1_innerShadow_2038_374"/>
</filter>
<linearGradient id="paint0_linear_2038_374" x1="5.33325" y1="58.6664" x2="69.3776" y2="26.9884" gradientUnits="userSpaceOnUse">
<stop stop-color="#ADA785"/>
<stop offset="1" stop-color="#D6D3C2"/>
</linearGradient>
</defs>
</svg>
