<svg width="64" height="64" viewBox="0 0 64 64" fill="none" xmlns="http://www.w3.org/2000/svg">
<g id="Calendar">
<g id="Calendar_2" filter="url(#filter0_i_2038_433)">
<path id="Calendar_3" fill-rule="evenodd" clip-rule="evenodd" d="M43.8725 7.29352V10.0532C51.8957 10.8316 56 15.266 56 23.2385V45.2926C56 54.1615 50.9449 58.6666 40.9971 58.6666H23.0029C13.0551 58.6666 8 54.1615 8 45.2926V23.2385C8 17.9314 9.8087 14.1338 13.5188 11.9166C14.1037 11.5174 14.8603 11.4895 15.472 11.8447C16.0837 12.1998 16.445 12.8767 16.4045 13.5919C16.364 14.3072 15.9289 14.9374 15.2812 15.2188C12.8232 16.6813 11.6638 19.2287 11.6638 23.2385V23.9461H45.4957C46.5074 23.9461 47.3275 24.7804 47.3275 25.8095C47.3275 26.8387 46.5074 27.6729 45.4957 27.6729H11.6638V45.2926C11.6638 52.0622 14.9565 54.8691 23.0029 54.9163H40.9971C48.9275 54.9163 52.313 52.0386 52.313 45.2691V23.2149C52.313 17.3181 49.7391 14.4641 43.8725 13.78V15.5727C43.7372 16.5281 42.9147 17.2257 41.9664 17.1893C41.018 17.1529 40.2496 16.3943 40.1855 15.4311V7.1284C40.2035 6.6298 40.4173 6.15936 40.779 5.82241C41.1408 5.48547 41.6203 5.31017 42.1101 5.33577C43.1201 5.39894 43.8994 6.2646 43.8725 7.29352ZM23.2235 16.7807C22.875 17.1309 22.403 17.3244 21.9132 17.3181C20.9105 17.2924 20.1147 16.4513 20.1277 15.4311V7.29351C20.2331 6.33887 21.0268 5.61717 21.9712 5.61717C22.9156 5.61717 23.7092 6.33887 23.8146 7.29351V9.86453H34.2958C35.3075 9.86453 36.1277 10.6988 36.1277 11.7279C36.1277 12.757 35.3075 13.5913 34.2958 13.5913H23.7683V15.4547C23.7683 15.953 23.5721 16.4306 23.2235 16.7807ZM43.1769 33.6406C41.8962 33.6406 40.858 34.6967 40.858 35.9994C40.858 37.3021 41.8962 38.3581 43.1769 38.3581C44.4575 38.3581 45.4957 37.3021 45.4957 35.9994C45.4957 35.3697 45.2483 34.7661 44.8084 34.3231C44.3685 33.8801 43.7727 33.6343 43.1537 33.6406H43.1769ZM29.7273 35.9993C29.7273 34.6966 30.7655 33.6406 32.0462 33.6406C33.3268 33.6406 34.365 34.6966 34.365 35.9993C34.365 37.302 33.3268 38.358 32.0462 38.358C30.7655 38.358 29.7273 37.302 29.7273 35.9993ZM20.9392 33.6406C19.6586 33.6406 18.6204 34.6967 18.6204 35.9994C18.6204 37.3021 19.6586 38.3581 20.9392 38.3581C22.2199 38.3581 23.2581 37.3021 23.2581 35.9994C23.2581 35.3697 23.0106 34.7661 22.5707 34.3231C22.1308 33.8801 21.535 33.6343 20.916 33.6406H20.9392ZM40.858 45.5522C40.858 44.2495 41.8962 43.1934 43.1769 43.1934H43.1537C43.7727 43.1871 44.3685 43.4329 44.8084 43.8759C45.2483 44.3189 45.4957 44.9225 45.4957 45.5522C45.4957 46.8549 44.4575 47.9109 43.1769 47.9109C41.8962 47.9109 40.858 46.8549 40.858 45.5522ZM32.0462 43.1934C30.7655 43.1934 29.7273 44.2494 29.7273 45.5521C29.7273 46.8548 30.7655 47.9108 32.0462 47.9108C33.3268 47.9108 34.365 46.8548 34.365 45.5521C34.365 44.2494 33.3268 43.1934 32.0462 43.1934ZM18.6204 45.5522C18.6204 44.2495 19.6586 43.1934 20.9392 43.1934H20.916C21.535 43.1871 22.1308 43.4329 22.5707 43.8759C23.0106 44.3189 23.2581 44.9225 23.2581 45.5522C23.2581 46.8549 22.2199 47.9109 20.9392 47.9109C19.6586 47.9109 18.6204 46.8549 18.6204 45.5522Z" fill="url(#paint0_linear_2038_433)"/>
</g>
</g>
<defs>
<filter id="filter0_i_2038_433" x="8" y="5.33331" width="48" height="53.3333" filterUnits="userSpaceOnUse" color-interpolation-filters="sRGB">
<feFlood flood-opacity="0" result="BackgroundImageFix"/>
<feBlend mode="normal" in="SourceGraphic" in2="BackgroundImageFix" result="shape"/>
<feColorMatrix in="SourceAlpha" type="matrix" values="0 0 0 0 0 0 0 0 0 0 0 0 0 0 0 0 0 0 127 0" result="hardAlpha"/>
<feOffset dx="-1.62" dy="1.62"/>
<feComposite in2="hardAlpha" operator="arithmetic" k2="-1" k3="1"/>
<feColorMatrix type="matrix" values="0 0 0 0 0.68 0 0 0 0 0.656 0 0 0 0 0.52 0 0 0 1 0"/>
<feBlend mode="normal" in2="shape" result="effect1_innerShadow_2038_433"/>
</filter>
<linearGradient id="paint0_linear_2038_433" x1="8" y1="58.6667" x2="67.8763" y2="32.0119" gradientUnits="userSpaceOnUse">
<stop stop-color="#ADA785"/>
<stop offset="1" stop-color="#D6D3C2"/>
</linearGradient>
</defs>
</svg>
