<svg width="64" height="64" viewBox="0 0 64 64" fill="none" xmlns="http://www.w3.org/2000/svg">
<g id="Discount">
<g id="Discount_2" filter="url(#filter0_i_2038_352)">
<path id="Discount_3" fill-rule="evenodd" clip-rule="evenodd" d="M10.5234 34.8656C8.95005 33.2917 8.95005 30.7309 10.5234 29.133L12.4434 27.2098C13.9634 25.6919 14.7901 23.6913 14.7901 21.5546V18.807C14.7901 16.593 16.6034 14.779 18.8167 14.779H21.5634C23.6967 14.779 25.6967 13.9521 27.2167 12.4316L29.1367 10.511C30.6834 8.9638 33.2167 8.93713 34.8167 10.4603C34.8297 10.472 34.8364 10.478 34.8429 10.4842C34.8497 10.4906 34.8564 10.4973 34.87 10.5109L34.8701 10.511C35.2167 10.8311 35.6967 11.0445 36.2301 11.0445C37.3234 11.0445 38.2301 10.1642 38.2301 9.04383C38.2301 8.51032 38.0167 8.03017 37.6701 7.65671C37.5634 7.55001 37.4567 7.46998 37.3501 7.38996C34.2034 4.53569 29.3234 4.66907 26.3101 7.68605L24.3901 9.60401C23.6434 10.3536 22.6301 10.7777 21.5634 10.7777H18.8167C14.3901 10.7777 10.7901 14.3789 10.7901 18.807V21.5546C10.7901 22.6216 10.3634 23.6353 9.61672 24.3822L7.67005 26.3295C4.55005 29.4772 4.55005 34.5748 7.69672 37.6958C8.09672 38.0933 8.60338 38.28 9.11005 38.28C9.61672 38.28 10.1501 38.0666 10.5234 37.6958C11.2967 36.8929 11.2967 35.6392 10.5234 34.8656ZM54.3862 24.39L56.3009 26.3053C57.8182 27.8124 58.6582 29.8264 58.6662 31.9738C58.6715 34.1211 57.8422 36.1405 56.3302 37.661L54.3835 39.6083C53.6422 40.3552 53.2155 41.3875 53.2129 42.4465V45.1861C53.2129 49.6142 49.6102 53.218 45.1835 53.218C44.0795 53.218 43.1835 52.3217 43.1835 51.2174C43.1835 50.113 44.0795 49.2167 45.1835 49.2167C47.4075 49.2167 49.2129 47.4081 49.2129 45.1861V42.4439C49.2155 40.3045 50.0449 38.2932 51.5515 36.7833L53.4715 34.8601C54.2529 34.0758 54.6689 33.0621 54.6662 31.9844C54.6635 30.9094 54.2395 29.8984 53.4769 29.1382L51.5542 27.2149C50.0449 25.6944 49.2155 23.6857 49.2129 21.5517V18.8068C49.2129 16.5821 47.4075 14.7762 45.1835 14.7762C44.0795 14.7762 43.1835 13.8799 43.1835 12.7755C43.1835 11.6712 44.0795 10.7749 45.1835 10.7749C49.6102 10.7749 53.2129 14.376 53.2129 18.8068V21.549C53.2155 22.6187 53.6315 23.6297 54.3862 24.39ZM31.9979 54.6706C33.0913 54.7133 34.0939 54.2518 34.8566 53.4809C35.6353 52.702 36.9019 52.694 37.6859 53.4729C38.4673 54.2545 38.4699 55.5216 37.6913 56.3058C36.1259 57.8797 34.0619 58.6666 31.9979 58.6666C29.9499 58.6666 27.8993 57.8904 26.3366 56.3352L24.3899 54.3879C23.6353 53.6383 22.6246 53.2195 21.5499 53.2168H18.8139C14.3873 53.2168 10.7846 49.6157 10.7846 45.1875C10.7846 44.0832 11.6806 43.1869 12.7846 43.1869C13.8886 43.1869 14.7846 44.0832 14.7846 45.1875C14.7846 47.4096 16.5899 49.2155 18.8139 49.2155H21.5553C23.6913 49.2182 25.7019 50.0505 27.2139 51.5523L29.1366 53.4783C29.9153 54.2545 30.9259 54.6706 31.9979 54.6706ZM23.7319 37.4366C22.9506 38.2182 22.9506 39.4853 23.7319 40.2669C24.1212 40.6563 24.6332 40.8511 25.1452 40.8511C25.6572 40.8511 26.1692 40.6563 26.5612 40.2669L40.2652 26.5557C41.0466 25.7742 41.0466 24.5071 40.2652 23.7255C39.4839 22.9439 38.2199 22.9439 37.4386 23.7255L23.7319 37.4366ZM25.1214 22.8672C26.3987 22.8672 27.4361 23.9049 27.4361 25.1826C27.4361 26.4604 26.3987 27.4954 25.1214 27.4954C23.8441 27.4954 22.8067 26.4604 22.8067 25.1826C22.8067 23.9049 23.8441 22.8672 25.1214 22.8672ZM38.8524 36.5436C40.1297 36.5436 41.167 37.5812 41.167 38.859C41.167 40.1367 40.1297 41.1744 38.8524 41.1744C37.5724 41.1744 36.5377 40.1367 36.5377 38.859C36.5377 37.5812 37.5724 36.5436 38.8524 36.5436Z" fill="url(#paint0_linear_2038_352)"/>
</g>
</g>
<defs>
<filter id="filter0_i_2038_352" x="5.33337" y="5.33334" width="53.3329" height="53.3333" filterUnits="userSpaceOnUse" color-interpolation-filters="sRGB">
<feFlood flood-opacity="0" result="BackgroundImageFix"/>
<feBlend mode="normal" in="SourceGraphic" in2="BackgroundImageFix" result="shape"/>
<feColorMatrix in="SourceAlpha" type="matrix" values="0 0 0 0 0 0 0 0 0 0 0 0 0 0 0 0 0 0 127 0" result="hardAlpha"/>
<feOffset dx="-1.62" dy="1.62"/>
<feComposite in2="hardAlpha" operator="arithmetic" k2="-1" k3="1"/>
<feColorMatrix type="matrix" values="0 0 0 0 0.68 0 0 0 0 0.656 0 0 0 0 0.52 0 0 0 1 0"/>
<feBlend mode="normal" in2="shape" result="effect1_innerShadow_2038_352"/>
</filter>
<linearGradient id="paint0_linear_2038_352" x1="5.33337" y1="58.6666" x2="69.3776" y2="26.9889" gradientUnits="userSpaceOnUse">
<stop stop-color="#ADA785"/>
<stop offset="1" stop-color="#D6D3C2"/>
</linearGradient>
</defs>
</svg>
